<mxfile host="app.diagrams.net" agent="Mozilla/5.0 (Windows NT 10.0; Win64; x64) AppleWebKit/537.36 (KHTML, like Gecko) Chrome/140.0.0.0 Safari/537.36" version="28.2.5">
  <diagram name="Página-1" id="h-ASX47JX2jUe3R7MsTG">
    <mxGraphModel dx="1720" dy="1171" grid="0" gridSize="10" guides="1" tooltips="1" connect="1" arrows="1" fold="1" page="1" pageScale="1" pageWidth="827" pageHeight="1169" math="0" shadow="0">
      <root>
        <mxCell id="0" />
        <mxCell id="1" parent="0" />
        <mxCell id="26935OlRSxEysBYqVgB9-1" value="&lt;font style=&quot;vertical-align: inherit;&quot; dir=&quot;auto&quot;&gt;&lt;font style=&quot;vertical-align: inherit;&quot; dir=&quot;auto&quot;&gt;USUARIO&lt;/font&gt;&lt;/font&gt;" style="shape=table;startSize=30;container=1;collapsible=1;childLayout=tableLayout;fixedRows=1;rowLines=0;fontStyle=1;align=center;resizeLast=1;html=1;" vertex="1" parent="1">
          <mxGeometry x="226" y="211" width="180" height="120" as="geometry" />
        </mxCell>
        <mxCell id="26935OlRSxEysBYqVgB9-2" value="" style="shape=tableRow;horizontal=0;startSize=0;swimlaneHead=0;swimlaneBody=0;fillColor=none;collapsible=0;dropTarget=0;points=[[0,0.5],[1,0.5]];portConstraint=eastwest;top=0;left=0;right=0;bottom=1;" vertex="1" parent="26935OlRSxEysBYqVgB9-1">
          <mxGeometry y="30" width="180" height="30" as="geometry" />
        </mxCell>
        <mxCell id="26935OlRSxEysBYqVgB9-3" value="PK" style="shape=partialRectangle;connectable=0;fillColor=none;top=0;left=0;bottom=0;right=0;fontStyle=1;overflow=hidden;whiteSpace=wrap;html=1;" vertex="1" parent="26935OlRSxEysBYqVgB9-2">
          <mxGeometry width="30" height="30" as="geometry">
            <mxRectangle width="30" height="30" as="alternateBounds" />
          </mxGeometry>
        </mxCell>
        <mxCell id="26935OlRSxEysBYqVgB9-4" value="&lt;font style=&quot;vertical-align: inherit;&quot; dir=&quot;auto&quot;&gt;&lt;font style=&quot;vertical-align: inherit;&quot; dir=&quot;auto&quot;&gt;ID_USUARIO&lt;/font&gt;&lt;/font&gt;" style="shape=partialRectangle;connectable=0;fillColor=none;top=0;left=0;bottom=0;right=0;align=left;spacingLeft=6;fontStyle=5;overflow=hidden;whiteSpace=wrap;html=1;" vertex="1" parent="26935OlRSxEysBYqVgB9-2">
          <mxGeometry x="30" width="150" height="30" as="geometry">
            <mxRectangle width="150" height="30" as="alternateBounds" />
          </mxGeometry>
        </mxCell>
        <mxCell id="26935OlRSxEysBYqVgB9-5" value="" style="shape=tableRow;horizontal=0;startSize=0;swimlaneHead=0;swimlaneBody=0;fillColor=none;collapsible=0;dropTarget=0;points=[[0,0.5],[1,0.5]];portConstraint=eastwest;top=0;left=0;right=0;bottom=0;" vertex="1" parent="26935OlRSxEysBYqVgB9-1">
          <mxGeometry y="60" width="180" height="30" as="geometry" />
        </mxCell>
        <mxCell id="26935OlRSxEysBYqVgB9-6" value="" style="shape=partialRectangle;connectable=0;fillColor=none;top=0;left=0;bottom=0;right=0;editable=1;overflow=hidden;whiteSpace=wrap;html=1;" vertex="1" parent="26935OlRSxEysBYqVgB9-5">
          <mxGeometry width="30" height="30" as="geometry">
            <mxRectangle width="30" height="30" as="alternateBounds" />
          </mxGeometry>
        </mxCell>
        <mxCell id="26935OlRSxEysBYqVgB9-7" value="&lt;font style=&quot;vertical-align: inherit;&quot; dir=&quot;auto&quot;&gt;&lt;font style=&quot;vertical-align: inherit;&quot; dir=&quot;auto&quot;&gt;CORREO&lt;/font&gt;&lt;/font&gt;" style="shape=partialRectangle;connectable=0;fillColor=none;top=0;left=0;bottom=0;right=0;align=left;spacingLeft=6;overflow=hidden;whiteSpace=wrap;html=1;" vertex="1" parent="26935OlRSxEysBYqVgB9-5">
          <mxGeometry x="30" width="150" height="30" as="geometry">
            <mxRectangle width="150" height="30" as="alternateBounds" />
          </mxGeometry>
        </mxCell>
        <mxCell id="26935OlRSxEysBYqVgB9-8" value="" style="shape=tableRow;horizontal=0;startSize=0;swimlaneHead=0;swimlaneBody=0;fillColor=none;collapsible=0;dropTarget=0;points=[[0,0.5],[1,0.5]];portConstraint=eastwest;top=0;left=0;right=0;bottom=0;" vertex="1" parent="26935OlRSxEysBYqVgB9-1">
          <mxGeometry y="90" width="180" height="30" as="geometry" />
        </mxCell>
        <mxCell id="26935OlRSxEysBYqVgB9-9" value="" style="shape=partialRectangle;connectable=0;fillColor=none;top=0;left=0;bottom=0;right=0;editable=1;overflow=hidden;whiteSpace=wrap;html=1;" vertex="1" parent="26935OlRSxEysBYqVgB9-8">
          <mxGeometry width="30" height="30" as="geometry">
            <mxRectangle width="30" height="30" as="alternateBounds" />
          </mxGeometry>
        </mxCell>
        <mxCell id="26935OlRSxEysBYqVgB9-10" value="&lt;font style=&quot;vertical-align: inherit;&quot; dir=&quot;auto&quot;&gt;&lt;font style=&quot;vertical-align: inherit;&quot; dir=&quot;auto&quot;&gt;CONTRASEÑA&lt;/font&gt;&lt;/font&gt;" style="shape=partialRectangle;connectable=0;fillColor=none;top=0;left=0;bottom=0;right=0;align=left;spacingLeft=6;overflow=hidden;whiteSpace=wrap;html=1;" vertex="1" parent="26935OlRSxEysBYqVgB9-8">
          <mxGeometry x="30" width="150" height="30" as="geometry">
            <mxRectangle width="150" height="30" as="alternateBounds" />
          </mxGeometry>
        </mxCell>
        <mxCell id="26935OlRSxEysBYqVgB9-14" value="&lt;font style=&quot;vertical-align: inherit;&quot; dir=&quot;auto&quot;&gt;&lt;font style=&quot;vertical-align: inherit;&quot; dir=&quot;auto&quot;&gt;CLIENTE&lt;/font&gt;&lt;/font&gt;" style="shape=table;startSize=30;container=1;collapsible=1;childLayout=tableLayout;fixedRows=1;rowLines=0;fontStyle=1;align=center;resizeLast=1;html=1;" vertex="1" parent="1">
          <mxGeometry x="996" y="211" width="180" height="120" as="geometry" />
        </mxCell>
        <mxCell id="26935OlRSxEysBYqVgB9-15" value="" style="shape=tableRow;horizontal=0;startSize=0;swimlaneHead=0;swimlaneBody=0;fillColor=none;collapsible=0;dropTarget=0;points=[[0,0.5],[1,0.5]];portConstraint=eastwest;top=0;left=0;right=0;bottom=1;" vertex="1" parent="26935OlRSxEysBYqVgB9-14">
          <mxGeometry y="30" width="180" height="30" as="geometry" />
        </mxCell>
        <mxCell id="26935OlRSxEysBYqVgB9-16" value="PK" style="shape=partialRectangle;connectable=0;fillColor=none;top=0;left=0;bottom=0;right=0;fontStyle=1;overflow=hidden;whiteSpace=wrap;html=1;" vertex="1" parent="26935OlRSxEysBYqVgB9-15">
          <mxGeometry width="30" height="30" as="geometry">
            <mxRectangle width="30" height="30" as="alternateBounds" />
          </mxGeometry>
        </mxCell>
        <mxCell id="26935OlRSxEysBYqVgB9-17" value="&lt;font style=&quot;vertical-align: inherit;&quot; dir=&quot;auto&quot;&gt;&lt;font style=&quot;vertical-align: inherit;&quot; dir=&quot;auto&quot;&gt;ID_CLIENTE&lt;/font&gt;&lt;/font&gt;" style="shape=partialRectangle;connectable=0;fillColor=none;top=0;left=0;bottom=0;right=0;align=left;spacingLeft=6;fontStyle=5;overflow=hidden;whiteSpace=wrap;html=1;" vertex="1" parent="26935OlRSxEysBYqVgB9-15">
          <mxGeometry x="30" width="150" height="30" as="geometry">
            <mxRectangle width="150" height="30" as="alternateBounds" />
          </mxGeometry>
        </mxCell>
        <mxCell id="26935OlRSxEysBYqVgB9-18" value="" style="shape=tableRow;horizontal=0;startSize=0;swimlaneHead=0;swimlaneBody=0;fillColor=none;collapsible=0;dropTarget=0;points=[[0,0.5],[1,0.5]];portConstraint=eastwest;top=0;left=0;right=0;bottom=0;" vertex="1" parent="26935OlRSxEysBYqVgB9-14">
          <mxGeometry y="60" width="180" height="30" as="geometry" />
        </mxCell>
        <mxCell id="26935OlRSxEysBYqVgB9-19" value="" style="shape=partialRectangle;connectable=0;fillColor=none;top=0;left=0;bottom=0;right=0;editable=1;overflow=hidden;whiteSpace=wrap;html=1;" vertex="1" parent="26935OlRSxEysBYqVgB9-18">
          <mxGeometry width="30" height="30" as="geometry">
            <mxRectangle width="30" height="30" as="alternateBounds" />
          </mxGeometry>
        </mxCell>
        <mxCell id="26935OlRSxEysBYqVgB9-20" value="&lt;font style=&quot;vertical-align: inherit;&quot; dir=&quot;auto&quot;&gt;&lt;font style=&quot;vertical-align: inherit;&quot; dir=&quot;auto&quot;&gt;NOMBRE&lt;/font&gt;&lt;/font&gt;" style="shape=partialRectangle;connectable=0;fillColor=none;top=0;left=0;bottom=0;right=0;align=left;spacingLeft=6;overflow=hidden;whiteSpace=wrap;html=1;" vertex="1" parent="26935OlRSxEysBYqVgB9-18">
          <mxGeometry x="30" width="150" height="30" as="geometry">
            <mxRectangle width="150" height="30" as="alternateBounds" />
          </mxGeometry>
        </mxCell>
        <mxCell id="26935OlRSxEysBYqVgB9-21" value="" style="shape=tableRow;horizontal=0;startSize=0;swimlaneHead=0;swimlaneBody=0;fillColor=none;collapsible=0;dropTarget=0;points=[[0,0.5],[1,0.5]];portConstraint=eastwest;top=0;left=0;right=0;bottom=0;" vertex="1" parent="26935OlRSxEysBYqVgB9-14">
          <mxGeometry y="90" width="180" height="30" as="geometry" />
        </mxCell>
        <mxCell id="26935OlRSxEysBYqVgB9-22" value="" style="shape=partialRectangle;connectable=0;fillColor=none;top=0;left=0;bottom=0;right=0;editable=1;overflow=hidden;whiteSpace=wrap;html=1;" vertex="1" parent="26935OlRSxEysBYqVgB9-21">
          <mxGeometry width="30" height="30" as="geometry">
            <mxRectangle width="30" height="30" as="alternateBounds" />
          </mxGeometry>
        </mxCell>
        <mxCell id="26935OlRSxEysBYqVgB9-23" value="&lt;font style=&quot;vertical-align: inherit;&quot; dir=&quot;auto&quot;&gt;&lt;font style=&quot;vertical-align: inherit;&quot; dir=&quot;auto&quot;&gt;TELEFONO&lt;/font&gt;&lt;/font&gt;" style="shape=partialRectangle;connectable=0;fillColor=none;top=0;left=0;bottom=0;right=0;align=left;spacingLeft=6;overflow=hidden;whiteSpace=wrap;html=1;" vertex="1" parent="26935OlRSxEysBYqVgB9-21">
          <mxGeometry x="30" width="150" height="30" as="geometry">
            <mxRectangle width="150" height="30" as="alternateBounds" />
          </mxGeometry>
        </mxCell>
        <mxCell id="26935OlRSxEysBYqVgB9-27" value="&lt;font style=&quot;vertical-align: inherit;&quot; dir=&quot;auto&quot;&gt;&lt;font style=&quot;vertical-align: inherit;&quot; dir=&quot;auto&quot;&gt;PAGO&lt;/font&gt;&lt;/font&gt;" style="shape=table;startSize=30;container=1;collapsible=1;childLayout=tableLayout;fixedRows=1;rowLines=0;fontStyle=1;align=center;resizeLast=1;html=1;" vertex="1" parent="1">
          <mxGeometry x="1273" y="303" width="180" height="180" as="geometry" />
        </mxCell>
        <mxCell id="26935OlRSxEysBYqVgB9-28" value="" style="shape=tableRow;horizontal=0;startSize=0;swimlaneHead=0;swimlaneBody=0;fillColor=none;collapsible=0;dropTarget=0;points=[[0,0.5],[1,0.5]];portConstraint=eastwest;top=0;left=0;right=0;bottom=1;" vertex="1" parent="26935OlRSxEysBYqVgB9-27">
          <mxGeometry y="30" width="180" height="30" as="geometry" />
        </mxCell>
        <mxCell id="26935OlRSxEysBYqVgB9-29" value="&lt;font style=&quot;vertical-align: inherit;&quot; dir=&quot;auto&quot;&gt;&lt;font style=&quot;vertical-align: inherit;&quot; dir=&quot;auto&quot;&gt;PK&lt;/font&gt;&lt;/font&gt;" style="shape=partialRectangle;connectable=0;fillColor=none;top=0;left=0;bottom=0;right=0;fontStyle=1;overflow=hidden;whiteSpace=wrap;html=1;" vertex="1" parent="26935OlRSxEysBYqVgB9-28">
          <mxGeometry width="30" height="30" as="geometry">
            <mxRectangle width="30" height="30" as="alternateBounds" />
          </mxGeometry>
        </mxCell>
        <mxCell id="26935OlRSxEysBYqVgB9-30" value="&lt;font style=&quot;vertical-align: inherit;&quot; dir=&quot;auto&quot;&gt;&lt;font style=&quot;vertical-align: inherit;&quot; dir=&quot;auto&quot;&gt;ID_PAGO&lt;/font&gt;&lt;/font&gt;" style="shape=partialRectangle;connectable=0;fillColor=none;top=0;left=0;bottom=0;right=0;align=left;spacingLeft=6;fontStyle=5;overflow=hidden;whiteSpace=wrap;html=1;" vertex="1" parent="26935OlRSxEysBYqVgB9-28">
          <mxGeometry x="30" width="150" height="30" as="geometry">
            <mxRectangle width="150" height="30" as="alternateBounds" />
          </mxGeometry>
        </mxCell>
        <mxCell id="26935OlRSxEysBYqVgB9-31" value="" style="shape=tableRow;horizontal=0;startSize=0;swimlaneHead=0;swimlaneBody=0;fillColor=none;collapsible=0;dropTarget=0;points=[[0,0.5],[1,0.5]];portConstraint=eastwest;top=0;left=0;right=0;bottom=0;" vertex="1" parent="26935OlRSxEysBYqVgB9-27">
          <mxGeometry y="60" width="180" height="30" as="geometry" />
        </mxCell>
        <mxCell id="26935OlRSxEysBYqVgB9-32" value="" style="shape=partialRectangle;connectable=0;fillColor=none;top=0;left=0;bottom=0;right=0;editable=1;overflow=hidden;whiteSpace=wrap;html=1;" vertex="1" parent="26935OlRSxEysBYqVgB9-31">
          <mxGeometry width="30" height="30" as="geometry">
            <mxRectangle width="30" height="30" as="alternateBounds" />
          </mxGeometry>
        </mxCell>
        <mxCell id="26935OlRSxEysBYqVgB9-33" value="&lt;font style=&quot;vertical-align: inherit;&quot; dir=&quot;auto&quot;&gt;&lt;font style=&quot;vertical-align: inherit;&quot; dir=&quot;auto&quot;&gt;FECHA&lt;/font&gt;&lt;/font&gt;" style="shape=partialRectangle;connectable=0;fillColor=none;top=0;left=0;bottom=0;right=0;align=left;spacingLeft=6;overflow=hidden;whiteSpace=wrap;html=1;" vertex="1" parent="26935OlRSxEysBYqVgB9-31">
          <mxGeometry x="30" width="150" height="30" as="geometry">
            <mxRectangle width="150" height="30" as="alternateBounds" />
          </mxGeometry>
        </mxCell>
        <mxCell id="26935OlRSxEysBYqVgB9-34" value="" style="shape=tableRow;horizontal=0;startSize=0;swimlaneHead=0;swimlaneBody=0;fillColor=none;collapsible=0;dropTarget=0;points=[[0,0.5],[1,0.5]];portConstraint=eastwest;top=0;left=0;right=0;bottom=0;" vertex="1" parent="26935OlRSxEysBYqVgB9-27">
          <mxGeometry y="90" width="180" height="30" as="geometry" />
        </mxCell>
        <mxCell id="26935OlRSxEysBYqVgB9-35" value="" style="shape=partialRectangle;connectable=0;fillColor=none;top=0;left=0;bottom=0;right=0;editable=1;overflow=hidden;whiteSpace=wrap;html=1;" vertex="1" parent="26935OlRSxEysBYqVgB9-34">
          <mxGeometry width="30" height="30" as="geometry">
            <mxRectangle width="30" height="30" as="alternateBounds" />
          </mxGeometry>
        </mxCell>
        <mxCell id="26935OlRSxEysBYqVgB9-36" value="&lt;font style=&quot;vertical-align: inherit;&quot; dir=&quot;auto&quot;&gt;&lt;font style=&quot;vertical-align: inherit;&quot; dir=&quot;auto&quot;&gt;MONTO&lt;/font&gt;&lt;/font&gt;" style="shape=partialRectangle;connectable=0;fillColor=none;top=0;left=0;bottom=0;right=0;align=left;spacingLeft=6;overflow=hidden;whiteSpace=wrap;html=1;" vertex="1" parent="26935OlRSxEysBYqVgB9-34">
          <mxGeometry x="30" width="150" height="30" as="geometry">
            <mxRectangle width="150" height="30" as="alternateBounds" />
          </mxGeometry>
        </mxCell>
        <mxCell id="26935OlRSxEysBYqVgB9-37" value="" style="shape=tableRow;horizontal=0;startSize=0;swimlaneHead=0;swimlaneBody=0;fillColor=none;collapsible=0;dropTarget=0;points=[[0,0.5],[1,0.5]];portConstraint=eastwest;top=0;left=0;right=0;bottom=0;" vertex="1" parent="26935OlRSxEysBYqVgB9-27">
          <mxGeometry y="120" width="180" height="30" as="geometry" />
        </mxCell>
        <mxCell id="26935OlRSxEysBYqVgB9-38" value="" style="shape=partialRectangle;connectable=0;fillColor=none;top=0;left=0;bottom=0;right=0;editable=1;overflow=hidden;whiteSpace=wrap;html=1;" vertex="1" parent="26935OlRSxEysBYqVgB9-37">
          <mxGeometry width="30" height="30" as="geometry">
            <mxRectangle width="30" height="30" as="alternateBounds" />
          </mxGeometry>
        </mxCell>
        <mxCell id="26935OlRSxEysBYqVgB9-39" value="&lt;font style=&quot;vertical-align: inherit;&quot; dir=&quot;auto&quot;&gt;&lt;font style=&quot;vertical-align: inherit;&quot; dir=&quot;auto&quot;&gt;ESTADO&lt;/font&gt;&lt;/font&gt;" style="shape=partialRectangle;connectable=0;fillColor=none;top=0;left=0;bottom=0;right=0;align=left;spacingLeft=6;overflow=hidden;whiteSpace=wrap;html=1;" vertex="1" parent="26935OlRSxEysBYqVgB9-37">
          <mxGeometry x="30" width="150" height="30" as="geometry">
            <mxRectangle width="150" height="30" as="alternateBounds" />
          </mxGeometry>
        </mxCell>
        <mxCell id="26935OlRSxEysBYqVgB9-45" style="shape=tableRow;horizontal=0;startSize=0;swimlaneHead=0;swimlaneBody=0;fillColor=none;collapsible=0;dropTarget=0;points=[[0,0.5],[1,0.5]];portConstraint=eastwest;top=0;left=0;right=0;bottom=0;" vertex="1" parent="26935OlRSxEysBYqVgB9-27">
          <mxGeometry y="150" width="180" height="30" as="geometry" />
        </mxCell>
        <mxCell id="26935OlRSxEysBYqVgB9-46" style="shape=partialRectangle;connectable=0;fillColor=none;top=0;left=0;bottom=0;right=0;editable=1;overflow=hidden;whiteSpace=wrap;html=1;" vertex="1" parent="26935OlRSxEysBYqVgB9-45">
          <mxGeometry width="30" height="30" as="geometry">
            <mxRectangle width="30" height="30" as="alternateBounds" />
          </mxGeometry>
        </mxCell>
        <mxCell id="26935OlRSxEysBYqVgB9-47" value="&lt;font style=&quot;vertical-align: inherit;&quot; dir=&quot;auto&quot;&gt;&lt;font style=&quot;vertical-align: inherit;&quot; dir=&quot;auto&quot;&gt;TIPO DE PAGO&lt;/font&gt;&lt;/font&gt;" style="shape=partialRectangle;connectable=0;fillColor=none;top=0;left=0;bottom=0;right=0;align=left;spacingLeft=6;overflow=hidden;whiteSpace=wrap;html=1;" vertex="1" parent="26935OlRSxEysBYqVgB9-45">
          <mxGeometry x="30" width="150" height="30" as="geometry">
            <mxRectangle width="150" height="30" as="alternateBounds" />
          </mxGeometry>
        </mxCell>
        <mxCell id="26935OlRSxEysBYqVgB9-48" value="&lt;font style=&quot;vertical-align: inherit;&quot; dir=&quot;auto&quot;&gt;&lt;font style=&quot;vertical-align: inherit;&quot; dir=&quot;auto&quot;&gt;EDIFICIO&lt;/font&gt;&lt;/font&gt;" style="shape=table;startSize=30;container=1;collapsible=1;childLayout=tableLayout;fixedRows=1;rowLines=0;fontStyle=1;align=center;resizeLast=1;html=1;" vertex="1" parent="1">
          <mxGeometry x="228" y="403" width="180" height="120" as="geometry" />
        </mxCell>
        <mxCell id="26935OlRSxEysBYqVgB9-49" value="" style="shape=tableRow;horizontal=0;startSize=0;swimlaneHead=0;swimlaneBody=0;fillColor=none;collapsible=0;dropTarget=0;points=[[0,0.5],[1,0.5]];portConstraint=eastwest;top=0;left=0;right=0;bottom=1;" vertex="1" parent="26935OlRSxEysBYqVgB9-48">
          <mxGeometry y="30" width="180" height="30" as="geometry" />
        </mxCell>
        <mxCell id="26935OlRSxEysBYqVgB9-50" value="PK" style="shape=partialRectangle;connectable=0;fillColor=none;top=0;left=0;bottom=0;right=0;fontStyle=1;overflow=hidden;whiteSpace=wrap;html=1;" vertex="1" parent="26935OlRSxEysBYqVgB9-49">
          <mxGeometry width="30" height="30" as="geometry">
            <mxRectangle width="30" height="30" as="alternateBounds" />
          </mxGeometry>
        </mxCell>
        <mxCell id="26935OlRSxEysBYqVgB9-51" value="&lt;font style=&quot;vertical-align: inherit;&quot; dir=&quot;auto&quot;&gt;&lt;font style=&quot;vertical-align: inherit;&quot; dir=&quot;auto&quot;&gt;ID_CONTRATO&lt;/font&gt;&lt;/font&gt;" style="shape=partialRectangle;connectable=0;fillColor=none;top=0;left=0;bottom=0;right=0;align=left;spacingLeft=6;fontStyle=5;overflow=hidden;whiteSpace=wrap;html=1;" vertex="1" parent="26935OlRSxEysBYqVgB9-49">
          <mxGeometry x="30" width="150" height="30" as="geometry">
            <mxRectangle width="150" height="30" as="alternateBounds" />
          </mxGeometry>
        </mxCell>
        <mxCell id="26935OlRSxEysBYqVgB9-52" value="" style="shape=tableRow;horizontal=0;startSize=0;swimlaneHead=0;swimlaneBody=0;fillColor=none;collapsible=0;dropTarget=0;points=[[0,0.5],[1,0.5]];portConstraint=eastwest;top=0;left=0;right=0;bottom=0;" vertex="1" parent="26935OlRSxEysBYqVgB9-48">
          <mxGeometry y="60" width="180" height="30" as="geometry" />
        </mxCell>
        <mxCell id="26935OlRSxEysBYqVgB9-53" value="" style="shape=partialRectangle;connectable=0;fillColor=none;top=0;left=0;bottom=0;right=0;editable=1;overflow=hidden;whiteSpace=wrap;html=1;" vertex="1" parent="26935OlRSxEysBYqVgB9-52">
          <mxGeometry width="30" height="30" as="geometry">
            <mxRectangle width="30" height="30" as="alternateBounds" />
          </mxGeometry>
        </mxCell>
        <mxCell id="26935OlRSxEysBYqVgB9-54" value="&lt;font style=&quot;vertical-align: inherit;&quot; dir=&quot;auto&quot;&gt;&lt;font style=&quot;vertical-align: inherit;&quot; dir=&quot;auto&quot;&gt;NO. TANQUE&lt;/font&gt;&lt;/font&gt;" style="shape=partialRectangle;connectable=0;fillColor=none;top=0;left=0;bottom=0;right=0;align=left;spacingLeft=6;overflow=hidden;whiteSpace=wrap;html=1;" vertex="1" parent="26935OlRSxEysBYqVgB9-52">
          <mxGeometry x="30" width="150" height="30" as="geometry">
            <mxRectangle width="150" height="30" as="alternateBounds" />
          </mxGeometry>
        </mxCell>
        <mxCell id="26935OlRSxEysBYqVgB9-55" value="" style="shape=tableRow;horizontal=0;startSize=0;swimlaneHead=0;swimlaneBody=0;fillColor=none;collapsible=0;dropTarget=0;points=[[0,0.5],[1,0.5]];portConstraint=eastwest;top=0;left=0;right=0;bottom=0;" vertex="1" parent="26935OlRSxEysBYqVgB9-48">
          <mxGeometry y="90" width="180" height="30" as="geometry" />
        </mxCell>
        <mxCell id="26935OlRSxEysBYqVgB9-56" value="" style="shape=partialRectangle;connectable=0;fillColor=none;top=0;left=0;bottom=0;right=0;editable=1;overflow=hidden;whiteSpace=wrap;html=1;" vertex="1" parent="26935OlRSxEysBYqVgB9-55">
          <mxGeometry width="30" height="30" as="geometry">
            <mxRectangle width="30" height="30" as="alternateBounds" />
          </mxGeometry>
        </mxCell>
        <mxCell id="26935OlRSxEysBYqVgB9-57" value="&lt;font style=&quot;vertical-align: inherit;&quot; dir=&quot;auto&quot;&gt;&lt;font style=&quot;vertical-align: inherit;&quot; dir=&quot;auto&quot;&gt;TELEFONO&lt;/font&gt;&lt;/font&gt;" style="shape=partialRectangle;connectable=0;fillColor=none;top=0;left=0;bottom=0;right=0;align=left;spacingLeft=6;overflow=hidden;whiteSpace=wrap;html=1;" vertex="1" parent="26935OlRSxEysBYqVgB9-55">
          <mxGeometry x="30" width="150" height="30" as="geometry">
            <mxRectangle width="150" height="30" as="alternateBounds" />
          </mxGeometry>
        </mxCell>
        <mxCell id="26935OlRSxEysBYqVgB9-61" value="&lt;font style=&quot;vertical-align: inherit;&quot; dir=&quot;auto&quot;&gt;&lt;font style=&quot;vertical-align: inherit;&quot; dir=&quot;auto&quot;&gt;DIRECCION&lt;/font&gt;&lt;/font&gt;" style="shape=table;startSize=30;container=1;collapsible=1;childLayout=tableLayout;fixedRows=1;rowLines=0;fontStyle=1;align=center;resizeLast=1;html=1;" vertex="1" parent="1">
          <mxGeometry x="609" y="273" width="180" height="210" as="geometry" />
        </mxCell>
        <mxCell id="26935OlRSxEysBYqVgB9-62" value="" style="shape=tableRow;horizontal=0;startSize=0;swimlaneHead=0;swimlaneBody=0;fillColor=none;collapsible=0;dropTarget=0;points=[[0,0.5],[1,0.5]];portConstraint=eastwest;top=0;left=0;right=0;bottom=1;" vertex="1" parent="26935OlRSxEysBYqVgB9-61">
          <mxGeometry y="30" width="180" height="30" as="geometry" />
        </mxCell>
        <mxCell id="26935OlRSxEysBYqVgB9-63" value="&lt;font style=&quot;vertical-align: inherit;&quot; dir=&quot;auto&quot;&gt;&lt;font style=&quot;vertical-align: inherit;&quot; dir=&quot;auto&quot;&gt;FK&lt;/font&gt;&lt;/font&gt;" style="shape=partialRectangle;connectable=0;fillColor=none;top=0;left=0;bottom=0;right=0;fontStyle=1;overflow=hidden;whiteSpace=wrap;html=1;" vertex="1" parent="26935OlRSxEysBYqVgB9-62">
          <mxGeometry width="30" height="30" as="geometry">
            <mxRectangle width="30" height="30" as="alternateBounds" />
          </mxGeometry>
        </mxCell>
        <mxCell id="26935OlRSxEysBYqVgB9-64" value="&lt;font style=&quot;vertical-align: inherit;&quot; dir=&quot;auto&quot;&gt;&lt;font style=&quot;vertical-align: inherit;&quot; dir=&quot;auto&quot;&gt;ID_CLIENTE&lt;/font&gt;&lt;/font&gt;" style="shape=partialRectangle;connectable=0;fillColor=none;top=0;left=0;bottom=0;right=0;align=left;spacingLeft=6;fontStyle=5;overflow=hidden;whiteSpace=wrap;html=1;" vertex="1" parent="26935OlRSxEysBYqVgB9-62">
          <mxGeometry x="30" width="150" height="30" as="geometry">
            <mxRectangle width="150" height="30" as="alternateBounds" />
          </mxGeometry>
        </mxCell>
        <mxCell id="26935OlRSxEysBYqVgB9-74" style="shape=tableRow;horizontal=0;startSize=0;swimlaneHead=0;swimlaneBody=0;fillColor=none;collapsible=0;dropTarget=0;points=[[0,0.5],[1,0.5]];portConstraint=eastwest;top=0;left=0;right=0;bottom=1;" vertex="1" parent="26935OlRSxEysBYqVgB9-61">
          <mxGeometry y="60" width="180" height="30" as="geometry" />
        </mxCell>
        <mxCell id="26935OlRSxEysBYqVgB9-75" value="FK" style="shape=partialRectangle;connectable=0;fillColor=none;top=0;left=0;bottom=0;right=0;fontStyle=1;overflow=hidden;whiteSpace=wrap;html=1;" vertex="1" parent="26935OlRSxEysBYqVgB9-74">
          <mxGeometry width="30" height="30" as="geometry">
            <mxRectangle width="30" height="30" as="alternateBounds" />
          </mxGeometry>
        </mxCell>
        <mxCell id="26935OlRSxEysBYqVgB9-76" value="ID_CONTRATO" style="shape=partialRectangle;connectable=0;fillColor=none;top=0;left=0;bottom=0;right=0;align=left;spacingLeft=6;fontStyle=5;overflow=hidden;whiteSpace=wrap;html=1;" vertex="1" parent="26935OlRSxEysBYqVgB9-74">
          <mxGeometry x="30" width="150" height="30" as="geometry">
            <mxRectangle width="150" height="30" as="alternateBounds" />
          </mxGeometry>
        </mxCell>
        <mxCell id="26935OlRSxEysBYqVgB9-65" value="" style="shape=tableRow;horizontal=0;startSize=0;swimlaneHead=0;swimlaneBody=0;fillColor=none;collapsible=0;dropTarget=0;points=[[0,0.5],[1,0.5]];portConstraint=eastwest;top=0;left=0;right=0;bottom=0;" vertex="1" parent="26935OlRSxEysBYqVgB9-61">
          <mxGeometry y="90" width="180" height="30" as="geometry" />
        </mxCell>
        <mxCell id="26935OlRSxEysBYqVgB9-66" value="" style="shape=partialRectangle;connectable=0;fillColor=none;top=0;left=0;bottom=0;right=0;editable=1;overflow=hidden;whiteSpace=wrap;html=1;" vertex="1" parent="26935OlRSxEysBYqVgB9-65">
          <mxGeometry width="30" height="30" as="geometry">
            <mxRectangle width="30" height="30" as="alternateBounds" />
          </mxGeometry>
        </mxCell>
        <mxCell id="26935OlRSxEysBYqVgB9-67" value="CALLE" style="shape=partialRectangle;connectable=0;fillColor=none;top=0;left=0;bottom=0;right=0;align=left;spacingLeft=6;overflow=hidden;whiteSpace=wrap;html=1;" vertex="1" parent="26935OlRSxEysBYqVgB9-65">
          <mxGeometry x="30" width="150" height="30" as="geometry">
            <mxRectangle width="150" height="30" as="alternateBounds" />
          </mxGeometry>
        </mxCell>
        <mxCell id="26935OlRSxEysBYqVgB9-68" value="" style="shape=tableRow;horizontal=0;startSize=0;swimlaneHead=0;swimlaneBody=0;fillColor=none;collapsible=0;dropTarget=0;points=[[0,0.5],[1,0.5]];portConstraint=eastwest;top=0;left=0;right=0;bottom=0;" vertex="1" parent="26935OlRSxEysBYqVgB9-61">
          <mxGeometry y="120" width="180" height="30" as="geometry" />
        </mxCell>
        <mxCell id="26935OlRSxEysBYqVgB9-69" value="" style="shape=partialRectangle;connectable=0;fillColor=none;top=0;left=0;bottom=0;right=0;editable=1;overflow=hidden;whiteSpace=wrap;html=1;" vertex="1" parent="26935OlRSxEysBYqVgB9-68">
          <mxGeometry width="30" height="30" as="geometry">
            <mxRectangle width="30" height="30" as="alternateBounds" />
          </mxGeometry>
        </mxCell>
        <mxCell id="26935OlRSxEysBYqVgB9-70" value="NUMERO" style="shape=partialRectangle;connectable=0;fillColor=none;top=0;left=0;bottom=0;right=0;align=left;spacingLeft=6;overflow=hidden;whiteSpace=wrap;html=1;" vertex="1" parent="26935OlRSxEysBYqVgB9-68">
          <mxGeometry x="30" width="150" height="30" as="geometry">
            <mxRectangle width="150" height="30" as="alternateBounds" />
          </mxGeometry>
        </mxCell>
        <mxCell id="26935OlRSxEysBYqVgB9-71" value="" style="shape=tableRow;horizontal=0;startSize=0;swimlaneHead=0;swimlaneBody=0;fillColor=none;collapsible=0;dropTarget=0;points=[[0,0.5],[1,0.5]];portConstraint=eastwest;top=0;left=0;right=0;bottom=0;" vertex="1" parent="26935OlRSxEysBYqVgB9-61">
          <mxGeometry y="150" width="180" height="30" as="geometry" />
        </mxCell>
        <mxCell id="26935OlRSxEysBYqVgB9-72" value="" style="shape=partialRectangle;connectable=0;fillColor=none;top=0;left=0;bottom=0;right=0;editable=1;overflow=hidden;whiteSpace=wrap;html=1;" vertex="1" parent="26935OlRSxEysBYqVgB9-71">
          <mxGeometry width="30" height="30" as="geometry">
            <mxRectangle width="30" height="30" as="alternateBounds" />
          </mxGeometry>
        </mxCell>
        <mxCell id="26935OlRSxEysBYqVgB9-73" value="COLONIA" style="shape=partialRectangle;connectable=0;fillColor=none;top=0;left=0;bottom=0;right=0;align=left;spacingLeft=6;overflow=hidden;whiteSpace=wrap;html=1;" vertex="1" parent="26935OlRSxEysBYqVgB9-71">
          <mxGeometry x="30" width="150" height="30" as="geometry">
            <mxRectangle width="150" height="30" as="alternateBounds" />
          </mxGeometry>
        </mxCell>
        <mxCell id="26935OlRSxEysBYqVgB9-77" style="shape=tableRow;horizontal=0;startSize=0;swimlaneHead=0;swimlaneBody=0;fillColor=none;collapsible=0;dropTarget=0;points=[[0,0.5],[1,0.5]];portConstraint=eastwest;top=0;left=0;right=0;bottom=0;" vertex="1" parent="26935OlRSxEysBYqVgB9-61">
          <mxGeometry y="180" width="180" height="30" as="geometry" />
        </mxCell>
        <mxCell id="26935OlRSxEysBYqVgB9-78" style="shape=partialRectangle;connectable=0;fillColor=none;top=0;left=0;bottom=0;right=0;editable=1;overflow=hidden;whiteSpace=wrap;html=1;" vertex="1" parent="26935OlRSxEysBYqVgB9-77">
          <mxGeometry width="30" height="30" as="geometry">
            <mxRectangle width="30" height="30" as="alternateBounds" />
          </mxGeometry>
        </mxCell>
        <mxCell id="26935OlRSxEysBYqVgB9-79" value="ESTADO" style="shape=partialRectangle;connectable=0;fillColor=none;top=0;left=0;bottom=0;right=0;align=left;spacingLeft=6;overflow=hidden;whiteSpace=wrap;html=1;" vertex="1" parent="26935OlRSxEysBYqVgB9-77">
          <mxGeometry x="30" width="150" height="30" as="geometry">
            <mxRectangle width="150" height="30" as="alternateBounds" />
          </mxGeometry>
        </mxCell>
        <mxCell id="26935OlRSxEysBYqVgB9-80" value="DEPARTAMENTO" style="shape=table;startSize=30;container=1;collapsible=1;childLayout=tableLayout;fixedRows=1;rowLines=0;fontStyle=1;align=center;resizeLast=1;html=1;" vertex="1" parent="1">
          <mxGeometry x="972" y="429" width="180" height="90" as="geometry" />
        </mxCell>
        <mxCell id="26935OlRSxEysBYqVgB9-81" value="" style="shape=tableRow;horizontal=0;startSize=0;swimlaneHead=0;swimlaneBody=0;fillColor=none;collapsible=0;dropTarget=0;points=[[0,0.5],[1,0.5]];portConstraint=eastwest;top=0;left=0;right=0;bottom=1;" vertex="1" parent="26935OlRSxEysBYqVgB9-80">
          <mxGeometry y="30" width="180" height="30" as="geometry" />
        </mxCell>
        <mxCell id="26935OlRSxEysBYqVgB9-82" value="PK" style="shape=partialRectangle;connectable=0;fillColor=none;top=0;left=0;bottom=0;right=0;fontStyle=1;overflow=hidden;whiteSpace=wrap;html=1;" vertex="1" parent="26935OlRSxEysBYqVgB9-81">
          <mxGeometry width="30" height="30" as="geometry">
            <mxRectangle width="30" height="30" as="alternateBounds" />
          </mxGeometry>
        </mxCell>
        <mxCell id="26935OlRSxEysBYqVgB9-83" value="ID_DEPARTAMENTO" style="shape=partialRectangle;connectable=0;fillColor=none;top=0;left=0;bottom=0;right=0;align=left;spacingLeft=6;fontStyle=5;overflow=hidden;whiteSpace=wrap;html=1;" vertex="1" parent="26935OlRSxEysBYqVgB9-81">
          <mxGeometry x="30" width="150" height="30" as="geometry">
            <mxRectangle width="150" height="30" as="alternateBounds" />
          </mxGeometry>
        </mxCell>
        <mxCell id="26935OlRSxEysBYqVgB9-90" value="" style="shape=tableRow;horizontal=0;startSize=0;swimlaneHead=0;swimlaneBody=0;fillColor=none;collapsible=0;dropTarget=0;points=[[0,0.5],[1,0.5]];portConstraint=eastwest;top=0;left=0;right=0;bottom=0;" vertex="1" parent="26935OlRSxEysBYqVgB9-80">
          <mxGeometry y="60" width="180" height="30" as="geometry" />
        </mxCell>
        <mxCell id="26935OlRSxEysBYqVgB9-91" value="" style="shape=partialRectangle;connectable=0;fillColor=none;top=0;left=0;bottom=0;right=0;editable=1;overflow=hidden;whiteSpace=wrap;html=1;" vertex="1" parent="26935OlRSxEysBYqVgB9-90">
          <mxGeometry width="30" height="30" as="geometry">
            <mxRectangle width="30" height="30" as="alternateBounds" />
          </mxGeometry>
        </mxCell>
        <mxCell id="26935OlRSxEysBYqVgB9-92" value="TITULAR" style="shape=partialRectangle;connectable=0;fillColor=none;top=0;left=0;bottom=0;right=0;align=left;spacingLeft=6;overflow=hidden;whiteSpace=wrap;html=1;" vertex="1" parent="26935OlRSxEysBYqVgB9-90">
          <mxGeometry x="30" width="150" height="30" as="geometry">
            <mxRectangle width="150" height="30" as="alternateBounds" />
          </mxGeometry>
        </mxCell>
        <mxCell id="26935OlRSxEysBYqVgB9-104" value="LECTURA" style="shape=table;startSize=30;container=1;collapsible=1;childLayout=tableLayout;fixedRows=1;rowLines=0;fontStyle=1;align=center;resizeLast=1;html=1;" vertex="1" parent="1">
          <mxGeometry x="1202" y="677" width="180" height="120" as="geometry" />
        </mxCell>
        <mxCell id="26935OlRSxEysBYqVgB9-118" value="" style="shape=tableRow;horizontal=0;startSize=0;swimlaneHead=0;swimlaneBody=0;fillColor=none;collapsible=0;dropTarget=0;points=[[0,0.5],[1,0.5]];portConstraint=eastwest;top=0;left=0;right=0;bottom=1;" vertex="1" parent="26935OlRSxEysBYqVgB9-104">
          <mxGeometry y="30" width="180" height="30" as="geometry" />
        </mxCell>
        <mxCell id="26935OlRSxEysBYqVgB9-119" value="PK" style="shape=partialRectangle;connectable=0;fillColor=none;top=0;left=0;bottom=0;right=0;fontStyle=1;overflow=hidden;whiteSpace=wrap;html=1;" vertex="1" parent="26935OlRSxEysBYqVgB9-118">
          <mxGeometry width="30" height="30" as="geometry">
            <mxRectangle width="30" height="30" as="alternateBounds" />
          </mxGeometry>
        </mxCell>
        <mxCell id="26935OlRSxEysBYqVgB9-120" value="ID_LECTURA" style="shape=partialRectangle;connectable=0;fillColor=none;top=0;left=0;bottom=0;right=0;align=left;spacingLeft=6;fontStyle=5;overflow=hidden;whiteSpace=wrap;html=1;" vertex="1" parent="26935OlRSxEysBYqVgB9-118">
          <mxGeometry x="30" width="150" height="30" as="geometry">
            <mxRectangle width="150" height="30" as="alternateBounds" />
          </mxGeometry>
        </mxCell>
        <mxCell id="26935OlRSxEysBYqVgB9-108" value="" style="shape=tableRow;horizontal=0;startSize=0;swimlaneHead=0;swimlaneBody=0;fillColor=none;collapsible=0;dropTarget=0;points=[[0,0.5],[1,0.5]];portConstraint=eastwest;top=0;left=0;right=0;bottom=0;" vertex="1" parent="26935OlRSxEysBYqVgB9-104">
          <mxGeometry y="60" width="180" height="30" as="geometry" />
        </mxCell>
        <mxCell id="26935OlRSxEysBYqVgB9-109" value="" style="shape=partialRectangle;connectable=0;fillColor=none;top=0;left=0;bottom=0;right=0;editable=1;overflow=hidden;whiteSpace=wrap;html=1;" vertex="1" parent="26935OlRSxEysBYqVgB9-108">
          <mxGeometry width="30" height="30" as="geometry">
            <mxRectangle width="30" height="30" as="alternateBounds" />
          </mxGeometry>
        </mxCell>
        <mxCell id="26935OlRSxEysBYqVgB9-110" value="VALOR" style="shape=partialRectangle;connectable=0;fillColor=none;top=0;left=0;bottom=0;right=0;align=left;spacingLeft=6;overflow=hidden;whiteSpace=wrap;html=1;" vertex="1" parent="26935OlRSxEysBYqVgB9-108">
          <mxGeometry x="30" width="150" height="30" as="geometry">
            <mxRectangle width="150" height="30" as="alternateBounds" />
          </mxGeometry>
        </mxCell>
        <mxCell id="26935OlRSxEysBYqVgB9-111" value="" style="shape=tableRow;horizontal=0;startSize=0;swimlaneHead=0;swimlaneBody=0;fillColor=none;collapsible=0;dropTarget=0;points=[[0,0.5],[1,0.5]];portConstraint=eastwest;top=0;left=0;right=0;bottom=0;" vertex="1" parent="26935OlRSxEysBYqVgB9-104">
          <mxGeometry y="90" width="180" height="30" as="geometry" />
        </mxCell>
        <mxCell id="26935OlRSxEysBYqVgB9-112" value="" style="shape=partialRectangle;connectable=0;fillColor=none;top=0;left=0;bottom=0;right=0;editable=1;overflow=hidden;whiteSpace=wrap;html=1;" vertex="1" parent="26935OlRSxEysBYqVgB9-111">
          <mxGeometry width="30" height="30" as="geometry">
            <mxRectangle width="30" height="30" as="alternateBounds" />
          </mxGeometry>
        </mxCell>
        <mxCell id="26935OlRSxEysBYqVgB9-113" value="FECHA" style="shape=partialRectangle;connectable=0;fillColor=none;top=0;left=0;bottom=0;right=0;align=left;spacingLeft=6;overflow=hidden;whiteSpace=wrap;html=1;" vertex="1" parent="26935OlRSxEysBYqVgB9-111">
          <mxGeometry x="30" width="150" height="30" as="geometry">
            <mxRectangle width="150" height="30" as="alternateBounds" />
          </mxGeometry>
        </mxCell>
        <mxCell id="26935OlRSxEysBYqVgB9-121" value="MEDIDOR" style="shape=table;startSize=30;container=1;collapsible=1;childLayout=tableLayout;fixedRows=1;rowLines=0;fontStyle=1;align=center;resizeLast=1;html=1;" vertex="1" parent="1">
          <mxGeometry x="609" y="519" width="180" height="180" as="geometry" />
        </mxCell>
        <mxCell id="26935OlRSxEysBYqVgB9-122" value="" style="shape=tableRow;horizontal=0;startSize=0;swimlaneHead=0;swimlaneBody=0;fillColor=none;collapsible=0;dropTarget=0;points=[[0,0.5],[1,0.5]];portConstraint=eastwest;top=0;left=0;right=0;bottom=1;" vertex="1" parent="26935OlRSxEysBYqVgB9-121">
          <mxGeometry y="30" width="180" height="30" as="geometry" />
        </mxCell>
        <mxCell id="26935OlRSxEysBYqVgB9-123" value="FK" style="shape=partialRectangle;connectable=0;fillColor=none;top=0;left=0;bottom=0;right=0;fontStyle=1;overflow=hidden;whiteSpace=wrap;html=1;" vertex="1" parent="26935OlRSxEysBYqVgB9-122">
          <mxGeometry width="30" height="30" as="geometry">
            <mxRectangle width="30" height="30" as="alternateBounds" />
          </mxGeometry>
        </mxCell>
        <mxCell id="26935OlRSxEysBYqVgB9-124" value="ID_DEPARTAMENTO" style="shape=partialRectangle;connectable=0;fillColor=none;top=0;left=0;bottom=0;right=0;align=left;spacingLeft=6;fontStyle=5;overflow=hidden;whiteSpace=wrap;html=1;" vertex="1" parent="26935OlRSxEysBYqVgB9-122">
          <mxGeometry x="30" width="150" height="30" as="geometry">
            <mxRectangle width="150" height="30" as="alternateBounds" />
          </mxGeometry>
        </mxCell>
        <mxCell id="26935OlRSxEysBYqVgB9-125" value="" style="shape=tableRow;horizontal=0;startSize=0;swimlaneHead=0;swimlaneBody=0;fillColor=none;collapsible=0;dropTarget=0;points=[[0,0.5],[1,0.5]];portConstraint=eastwest;top=0;left=0;right=0;bottom=0;" vertex="1" parent="26935OlRSxEysBYqVgB9-121">
          <mxGeometry y="60" width="180" height="30" as="geometry" />
        </mxCell>
        <mxCell id="26935OlRSxEysBYqVgB9-126" value="" style="shape=partialRectangle;connectable=0;fillColor=none;top=0;left=0;bottom=0;right=0;editable=1;overflow=hidden;whiteSpace=wrap;html=1;" vertex="1" parent="26935OlRSxEysBYqVgB9-125">
          <mxGeometry width="30" height="30" as="geometry">
            <mxRectangle width="30" height="30" as="alternateBounds" />
          </mxGeometry>
        </mxCell>
        <mxCell id="26935OlRSxEysBYqVgB9-127" value="FECHA INSTALACION" style="shape=partialRectangle;connectable=0;fillColor=none;top=0;left=0;bottom=0;right=0;align=left;spacingLeft=6;overflow=hidden;whiteSpace=wrap;html=1;" vertex="1" parent="26935OlRSxEysBYqVgB9-125">
          <mxGeometry x="30" width="150" height="30" as="geometry">
            <mxRectangle width="150" height="30" as="alternateBounds" />
          </mxGeometry>
        </mxCell>
        <mxCell id="26935OlRSxEysBYqVgB9-128" value="" style="shape=tableRow;horizontal=0;startSize=0;swimlaneHead=0;swimlaneBody=0;fillColor=none;collapsible=0;dropTarget=0;points=[[0,0.5],[1,0.5]];portConstraint=eastwest;top=0;left=0;right=0;bottom=0;" vertex="1" parent="26935OlRSxEysBYqVgB9-121">
          <mxGeometry y="90" width="180" height="30" as="geometry" />
        </mxCell>
        <mxCell id="26935OlRSxEysBYqVgB9-129" value="" style="shape=partialRectangle;connectable=0;fillColor=none;top=0;left=0;bottom=0;right=0;editable=1;overflow=hidden;whiteSpace=wrap;html=1;" vertex="1" parent="26935OlRSxEysBYqVgB9-128">
          <mxGeometry width="30" height="30" as="geometry">
            <mxRectangle width="30" height="30" as="alternateBounds" />
          </mxGeometry>
        </mxCell>
        <mxCell id="26935OlRSxEysBYqVgB9-130" value="NUMERO SERIE" style="shape=partialRectangle;connectable=0;fillColor=none;top=0;left=0;bottom=0;right=0;align=left;spacingLeft=6;overflow=hidden;whiteSpace=wrap;html=1;" vertex="1" parent="26935OlRSxEysBYqVgB9-128">
          <mxGeometry x="30" width="150" height="30" as="geometry">
            <mxRectangle width="150" height="30" as="alternateBounds" />
          </mxGeometry>
        </mxCell>
        <mxCell id="26935OlRSxEysBYqVgB9-131" value="" style="shape=tableRow;horizontal=0;startSize=0;swimlaneHead=0;swimlaneBody=0;fillColor=none;collapsible=0;dropTarget=0;points=[[0,0.5],[1,0.5]];portConstraint=eastwest;top=0;left=0;right=0;bottom=0;" vertex="1" parent="26935OlRSxEysBYqVgB9-121">
          <mxGeometry y="120" width="180" height="30" as="geometry" />
        </mxCell>
        <mxCell id="26935OlRSxEysBYqVgB9-132" value="" style="shape=partialRectangle;connectable=0;fillColor=none;top=0;left=0;bottom=0;right=0;editable=1;overflow=hidden;whiteSpace=wrap;html=1;" vertex="1" parent="26935OlRSxEysBYqVgB9-131">
          <mxGeometry width="30" height="30" as="geometry">
            <mxRectangle width="30" height="30" as="alternateBounds" />
          </mxGeometry>
        </mxCell>
        <mxCell id="26935OlRSxEysBYqVgB9-133" value="MARCA" style="shape=partialRectangle;connectable=0;fillColor=none;top=0;left=0;bottom=0;right=0;align=left;spacingLeft=6;overflow=hidden;whiteSpace=wrap;html=1;" vertex="1" parent="26935OlRSxEysBYqVgB9-131">
          <mxGeometry x="30" width="150" height="30" as="geometry">
            <mxRectangle width="150" height="30" as="alternateBounds" />
          </mxGeometry>
        </mxCell>
        <mxCell id="26935OlRSxEysBYqVgB9-134" style="shape=tableRow;horizontal=0;startSize=0;swimlaneHead=0;swimlaneBody=0;fillColor=none;collapsible=0;dropTarget=0;points=[[0,0.5],[1,0.5]];portConstraint=eastwest;top=0;left=0;right=0;bottom=0;" vertex="1" parent="26935OlRSxEysBYqVgB9-121">
          <mxGeometry y="150" width="180" height="30" as="geometry" />
        </mxCell>
        <mxCell id="26935OlRSxEysBYqVgB9-135" style="shape=partialRectangle;connectable=0;fillColor=none;top=0;left=0;bottom=0;right=0;editable=1;overflow=hidden;whiteSpace=wrap;html=1;" vertex="1" parent="26935OlRSxEysBYqVgB9-134">
          <mxGeometry width="30" height="30" as="geometry">
            <mxRectangle width="30" height="30" as="alternateBounds" />
          </mxGeometry>
        </mxCell>
        <mxCell id="26935OlRSxEysBYqVgB9-136" value="NUM. DEPTO" style="shape=partialRectangle;connectable=0;fillColor=none;top=0;left=0;bottom=0;right=0;align=left;spacingLeft=6;overflow=hidden;whiteSpace=wrap;html=1;" vertex="1" parent="26935OlRSxEysBYqVgB9-134">
          <mxGeometry x="30" width="150" height="30" as="geometry">
            <mxRectangle width="150" height="30" as="alternateBounds" />
          </mxGeometry>
        </mxCell>
        <mxCell id="26935OlRSxEysBYqVgB9-137" value="CICLO DE CARGA" style="shape=table;startSize=30;container=1;collapsible=1;childLayout=tableLayout;fixedRows=1;rowLines=0;fontStyle=1;align=center;resizeLast=1;html=1;" vertex="1" parent="1">
          <mxGeometry x="226" y="639" width="180" height="150" as="geometry" />
        </mxCell>
        <mxCell id="26935OlRSxEysBYqVgB9-138" value="" style="shape=tableRow;horizontal=0;startSize=0;swimlaneHead=0;swimlaneBody=0;fillColor=none;collapsible=0;dropTarget=0;points=[[0,0.5],[1,0.5]];portConstraint=eastwest;top=0;left=0;right=0;bottom=1;" vertex="1" parent="26935OlRSxEysBYqVgB9-137">
          <mxGeometry y="30" width="180" height="30" as="geometry" />
        </mxCell>
        <mxCell id="26935OlRSxEysBYqVgB9-139" value="PK" style="shape=partialRectangle;connectable=0;fillColor=none;top=0;left=0;bottom=0;right=0;fontStyle=1;overflow=hidden;whiteSpace=wrap;html=1;" vertex="1" parent="26935OlRSxEysBYqVgB9-138">
          <mxGeometry width="30" height="30" as="geometry">
            <mxRectangle width="30" height="30" as="alternateBounds" />
          </mxGeometry>
        </mxCell>
        <mxCell id="26935OlRSxEysBYqVgB9-140" value="ID_CARGA" style="shape=partialRectangle;connectable=0;fillColor=none;top=0;left=0;bottom=0;right=0;align=left;spacingLeft=6;fontStyle=5;overflow=hidden;whiteSpace=wrap;html=1;" vertex="1" parent="26935OlRSxEysBYqVgB9-138">
          <mxGeometry x="30" width="150" height="30" as="geometry">
            <mxRectangle width="150" height="30" as="alternateBounds" />
          </mxGeometry>
        </mxCell>
        <mxCell id="26935OlRSxEysBYqVgB9-141" value="" style="shape=tableRow;horizontal=0;startSize=0;swimlaneHead=0;swimlaneBody=0;fillColor=none;collapsible=0;dropTarget=0;points=[[0,0.5],[1,0.5]];portConstraint=eastwest;top=0;left=0;right=0;bottom=0;" vertex="1" parent="26935OlRSxEysBYqVgB9-137">
          <mxGeometry y="60" width="180" height="30" as="geometry" />
        </mxCell>
        <mxCell id="26935OlRSxEysBYqVgB9-142" value="" style="shape=partialRectangle;connectable=0;fillColor=none;top=0;left=0;bottom=0;right=0;editable=1;overflow=hidden;whiteSpace=wrap;html=1;" vertex="1" parent="26935OlRSxEysBYqVgB9-141">
          <mxGeometry width="30" height="30" as="geometry">
            <mxRectangle width="30" height="30" as="alternateBounds" />
          </mxGeometry>
        </mxCell>
        <mxCell id="26935OlRSxEysBYqVgB9-143" value="FECHA" style="shape=partialRectangle;connectable=0;fillColor=none;top=0;left=0;bottom=0;right=0;align=left;spacingLeft=6;overflow=hidden;whiteSpace=wrap;html=1;" vertex="1" parent="26935OlRSxEysBYqVgB9-141">
          <mxGeometry x="30" width="150" height="30" as="geometry">
            <mxRectangle width="150" height="30" as="alternateBounds" />
          </mxGeometry>
        </mxCell>
        <mxCell id="26935OlRSxEysBYqVgB9-144" value="" style="shape=tableRow;horizontal=0;startSize=0;swimlaneHead=0;swimlaneBody=0;fillColor=none;collapsible=0;dropTarget=0;points=[[0,0.5],[1,0.5]];portConstraint=eastwest;top=0;left=0;right=0;bottom=0;" vertex="1" parent="26935OlRSxEysBYqVgB9-137">
          <mxGeometry y="90" width="180" height="30" as="geometry" />
        </mxCell>
        <mxCell id="26935OlRSxEysBYqVgB9-145" value="" style="shape=partialRectangle;connectable=0;fillColor=none;top=0;left=0;bottom=0;right=0;editable=1;overflow=hidden;whiteSpace=wrap;html=1;" vertex="1" parent="26935OlRSxEysBYqVgB9-144">
          <mxGeometry width="30" height="30" as="geometry">
            <mxRectangle width="30" height="30" as="alternateBounds" />
          </mxGeometry>
        </mxCell>
        <mxCell id="26935OlRSxEysBYqVgB9-146" value="LITROS" style="shape=partialRectangle;connectable=0;fillColor=none;top=0;left=0;bottom=0;right=0;align=left;spacingLeft=6;overflow=hidden;whiteSpace=wrap;html=1;" vertex="1" parent="26935OlRSxEysBYqVgB9-144">
          <mxGeometry x="30" width="150" height="30" as="geometry">
            <mxRectangle width="150" height="30" as="alternateBounds" />
          </mxGeometry>
        </mxCell>
        <mxCell id="26935OlRSxEysBYqVgB9-147" value="" style="shape=tableRow;horizontal=0;startSize=0;swimlaneHead=0;swimlaneBody=0;fillColor=none;collapsible=0;dropTarget=0;points=[[0,0.5],[1,0.5]];portConstraint=eastwest;top=0;left=0;right=0;bottom=0;" vertex="1" parent="26935OlRSxEysBYqVgB9-137">
          <mxGeometry y="120" width="180" height="30" as="geometry" />
        </mxCell>
        <mxCell id="26935OlRSxEysBYqVgB9-148" value="" style="shape=partialRectangle;connectable=0;fillColor=none;top=0;left=0;bottom=0;right=0;editable=1;overflow=hidden;whiteSpace=wrap;html=1;" vertex="1" parent="26935OlRSxEysBYqVgB9-147">
          <mxGeometry width="30" height="30" as="geometry">
            <mxRectangle width="30" height="30" as="alternateBounds" />
          </mxGeometry>
        </mxCell>
        <mxCell id="26935OlRSxEysBYqVgB9-149" value="MONTO" style="shape=partialRectangle;connectable=0;fillColor=none;top=0;left=0;bottom=0;right=0;align=left;spacingLeft=6;overflow=hidden;whiteSpace=wrap;html=1;" vertex="1" parent="26935OlRSxEysBYqVgB9-147">
          <mxGeometry x="30" width="150" height="30" as="geometry">
            <mxRectangle width="150" height="30" as="alternateBounds" />
          </mxGeometry>
        </mxCell>
        <mxCell id="26935OlRSxEysBYqVgB9-150" value="FACTURA" style="shape=table;startSize=30;container=1;collapsible=1;childLayout=tableLayout;fixedRows=1;rowLines=0;fontStyle=1;align=center;resizeLast=1;html=1;" vertex="1" parent="1">
          <mxGeometry x="927" y="647" width="180" height="180" as="geometry" />
        </mxCell>
        <mxCell id="26935OlRSxEysBYqVgB9-151" value="" style="shape=tableRow;horizontal=0;startSize=0;swimlaneHead=0;swimlaneBody=0;fillColor=none;collapsible=0;dropTarget=0;points=[[0,0.5],[1,0.5]];portConstraint=eastwest;top=0;left=0;right=0;bottom=1;" vertex="1" parent="26935OlRSxEysBYqVgB9-150">
          <mxGeometry y="30" width="180" height="30" as="geometry" />
        </mxCell>
        <mxCell id="26935OlRSxEysBYqVgB9-152" value="PK" style="shape=partialRectangle;connectable=0;fillColor=none;top=0;left=0;bottom=0;right=0;fontStyle=1;overflow=hidden;whiteSpace=wrap;html=1;" vertex="1" parent="26935OlRSxEysBYqVgB9-151">
          <mxGeometry width="30" height="30" as="geometry">
            <mxRectangle width="30" height="30" as="alternateBounds" />
          </mxGeometry>
        </mxCell>
        <mxCell id="26935OlRSxEysBYqVgB9-153" value="ID_FACTURA" style="shape=partialRectangle;connectable=0;fillColor=none;top=0;left=0;bottom=0;right=0;align=left;spacingLeft=6;fontStyle=5;overflow=hidden;whiteSpace=wrap;html=1;" vertex="1" parent="26935OlRSxEysBYqVgB9-151">
          <mxGeometry x="30" width="150" height="30" as="geometry">
            <mxRectangle width="150" height="30" as="alternateBounds" />
          </mxGeometry>
        </mxCell>
        <mxCell id="26935OlRSxEysBYqVgB9-154" value="" style="shape=tableRow;horizontal=0;startSize=0;swimlaneHead=0;swimlaneBody=0;fillColor=none;collapsible=0;dropTarget=0;points=[[0,0.5],[1,0.5]];portConstraint=eastwest;top=0;left=0;right=0;bottom=0;" vertex="1" parent="26935OlRSxEysBYqVgB9-150">
          <mxGeometry y="60" width="180" height="30" as="geometry" />
        </mxCell>
        <mxCell id="26935OlRSxEysBYqVgB9-155" value="" style="shape=partialRectangle;connectable=0;fillColor=none;top=0;left=0;bottom=0;right=0;editable=1;overflow=hidden;whiteSpace=wrap;html=1;" vertex="1" parent="26935OlRSxEysBYqVgB9-154">
          <mxGeometry width="30" height="30" as="geometry">
            <mxRectangle width="30" height="30" as="alternateBounds" />
          </mxGeometry>
        </mxCell>
        <mxCell id="26935OlRSxEysBYqVgB9-156" value="PERIODO" style="shape=partialRectangle;connectable=0;fillColor=none;top=0;left=0;bottom=0;right=0;align=left;spacingLeft=6;overflow=hidden;whiteSpace=wrap;html=1;" vertex="1" parent="26935OlRSxEysBYqVgB9-154">
          <mxGeometry x="30" width="150" height="30" as="geometry">
            <mxRectangle width="150" height="30" as="alternateBounds" />
          </mxGeometry>
        </mxCell>
        <mxCell id="26935OlRSxEysBYqVgB9-157" value="" style="shape=tableRow;horizontal=0;startSize=0;swimlaneHead=0;swimlaneBody=0;fillColor=none;collapsible=0;dropTarget=0;points=[[0,0.5],[1,0.5]];portConstraint=eastwest;top=0;left=0;right=0;bottom=0;" vertex="1" parent="26935OlRSxEysBYqVgB9-150">
          <mxGeometry y="90" width="180" height="30" as="geometry" />
        </mxCell>
        <mxCell id="26935OlRSxEysBYqVgB9-158" value="" style="shape=partialRectangle;connectable=0;fillColor=none;top=0;left=0;bottom=0;right=0;editable=1;overflow=hidden;whiteSpace=wrap;html=1;" vertex="1" parent="26935OlRSxEysBYqVgB9-157">
          <mxGeometry width="30" height="30" as="geometry">
            <mxRectangle width="30" height="30" as="alternateBounds" />
          </mxGeometry>
        </mxCell>
        <mxCell id="26935OlRSxEysBYqVgB9-159" value="CONSUMO M3" style="shape=partialRectangle;connectable=0;fillColor=none;top=0;left=0;bottom=0;right=0;align=left;spacingLeft=6;overflow=hidden;whiteSpace=wrap;html=1;" vertex="1" parent="26935OlRSxEysBYqVgB9-157">
          <mxGeometry x="30" width="150" height="30" as="geometry">
            <mxRectangle width="150" height="30" as="alternateBounds" />
          </mxGeometry>
        </mxCell>
        <mxCell id="26935OlRSxEysBYqVgB9-160" value="" style="shape=tableRow;horizontal=0;startSize=0;swimlaneHead=0;swimlaneBody=0;fillColor=none;collapsible=0;dropTarget=0;points=[[0,0.5],[1,0.5]];portConstraint=eastwest;top=0;left=0;right=0;bottom=0;" vertex="1" parent="26935OlRSxEysBYqVgB9-150">
          <mxGeometry y="120" width="180" height="30" as="geometry" />
        </mxCell>
        <mxCell id="26935OlRSxEysBYqVgB9-161" value="" style="shape=partialRectangle;connectable=0;fillColor=none;top=0;left=0;bottom=0;right=0;editable=1;overflow=hidden;whiteSpace=wrap;html=1;" vertex="1" parent="26935OlRSxEysBYqVgB9-160">
          <mxGeometry width="30" height="30" as="geometry">
            <mxRectangle width="30" height="30" as="alternateBounds" />
          </mxGeometry>
        </mxCell>
        <mxCell id="26935OlRSxEysBYqVgB9-162" value="PRECIO M3" style="shape=partialRectangle;connectable=0;fillColor=none;top=0;left=0;bottom=0;right=0;align=left;spacingLeft=6;overflow=hidden;whiteSpace=wrap;html=1;" vertex="1" parent="26935OlRSxEysBYqVgB9-160">
          <mxGeometry x="30" width="150" height="30" as="geometry">
            <mxRectangle width="150" height="30" as="alternateBounds" />
          </mxGeometry>
        </mxCell>
        <mxCell id="26935OlRSxEysBYqVgB9-163" style="shape=tableRow;horizontal=0;startSize=0;swimlaneHead=0;swimlaneBody=0;fillColor=none;collapsible=0;dropTarget=0;points=[[0,0.5],[1,0.5]];portConstraint=eastwest;top=0;left=0;right=0;bottom=0;" vertex="1" parent="26935OlRSxEysBYqVgB9-150">
          <mxGeometry y="150" width="180" height="30" as="geometry" />
        </mxCell>
        <mxCell id="26935OlRSxEysBYqVgB9-164" style="shape=partialRectangle;connectable=0;fillColor=none;top=0;left=0;bottom=0;right=0;editable=1;overflow=hidden;whiteSpace=wrap;html=1;" vertex="1" parent="26935OlRSxEysBYqVgB9-163">
          <mxGeometry width="30" height="30" as="geometry">
            <mxRectangle width="30" height="30" as="alternateBounds" />
          </mxGeometry>
        </mxCell>
        <mxCell id="26935OlRSxEysBYqVgB9-165" value="MONTO" style="shape=partialRectangle;connectable=0;fillColor=none;top=0;left=0;bottom=0;right=0;align=left;spacingLeft=6;overflow=hidden;whiteSpace=wrap;html=1;" vertex="1" parent="26935OlRSxEysBYqVgB9-163">
          <mxGeometry x="30" width="150" height="30" as="geometry">
            <mxRectangle width="150" height="30" as="alternateBounds" />
          </mxGeometry>
        </mxCell>
        <mxCell id="26935OlRSxEysBYqVgB9-166" value="&lt;h1&gt;&lt;font face=&quot;Courier New&quot; style=&quot;font-size: 40px;&quot;&gt;&lt;u&gt;ADMIN GASLP&lt;/u&gt;&lt;/font&gt;&lt;/h1&gt;" style="text;strokeColor=none;fillColor=none;html=1;fontSize=24;fontStyle=1;verticalAlign=middle;align=center;" vertex="1" parent="1">
          <mxGeometry x="674" y="42" width="310" height="110" as="geometry" />
        </mxCell>
        <mxCell id="26935OlRSxEysBYqVgB9-168" value="" style="shape=image;verticalLabelPosition=bottom;labelBackgroundColor=default;verticalAlign=top;aspect=fixed;imageAspect=0;image=data:image/png,iVBORw0KGgoAAAANSUhEUgAAAyAAAAEsCAYAAAA7Ldc6AAAAAXNSR0IArs4c6QAAAARnQU1BAACxjwv8YQUAAAAJcEhZcwAAHYYAAB2GAV2iE4EAAAGHaVRYdFhNTDpjb20uYWRvYmUueG1wAAAAAAA8P3hwYWNrZXQgYmVnaW49J++7vycgaWQ9J1c1TTBNcENlaGlIenJlU3pOVGN6a2M5ZCc/Pg0KPHg6eG1wbWV0YSB4bWxuczp4PSJhZG9iZTpuczptZXRhLyI+PHJkZjpSREYgeG1sbnM6cmRmPSJodHRwOi8vd3d3LnczLm9yZy8xOTk5LzAyLzIyLXJkZi1zeW50YXgtbnMjIj48cmRmOkRlc2NyaXB0aW9uIHJkZjphYm91dD0idXVpZDpmYWY1YmRkNS1iYTNkLTExZGEtYWQzMS1kMzNkNzUxODJmMWIiIHhtbG5zOnRpZmY9Imh0dHA6Ly9ucy5hZG9iZS5jb20vdGlmZi8xLjAvIj48dGlmZjpPcmllbnRhdGlvbj4xPC90aWZmOk9yaWVudGF0aW9uPjwvcmRmOkRlc2NyaXB0aW9uPjwvcmRmOlJERj48L3g6eG1wbWV0YT4NCjw/eHBhY2tldCBlbmQ9J3cnPz4slJgLAABBIElEQVR4Xu3dd7htRXk/8JlZ+1zh0gVFLCgBEbFgRTSgYCOIJWo0ajSCiiBILBFLkBjFgi02RMSIWKNRMTZi/Kkoioj0iAVQmigISL/33LvXfL/v74+zDh7es8va++yyzrnfz/O8z3PvrD2zZpez98xaU0IQERERERERERERERERERERERERERERERERERERERERERERERERERERERERERERERERERERERERERERERERERERERERERERERERERERERERERERERERERERERERERERERERERERERERERERERERERERERERERERERERERERERERERERERERERERERERERERERERERERERERERERERERERERERERERERERERERERERERERERERERERERERERERERERERERERERERERERERERERERERERERERERERERERERERERERERERERERERERERERERERERERERERERERERERERERERERERERERERERERERERERERERERERERERERERERERERERERERERERERERERERERERERERERERERERERERERERERERERERERERERERERERERERERERERERERERERERERERERERERERERERERERERERERERERERERERERERERERERERERERERERERERERERERERERERERERERERERERERERERERERERERERERERERERERERERERERERERERERERERERERERERERERERERERERERERERERERERERERERERERERERERkQYxs00BnA/gv/wxERERERGRkQLwzhCChRCM5D/64yIiIiIiIiNB8rEAZuc7IACuI7mtf5yIiIiIiMiSmNkqAGfNdz4WdEI+4x8rIiIiIiKyJDnnN/vOx3yY2d/6x4uIiIiIiAyF5EMXDr3yAeAyM9vK5xMRERERERmImbUA/Mx3OnwAOMHnFRERERERGUjO+Ujf2egUnLOfzy8iIiIiIlILyQf3GnrlA8CFJDf25YiIiIiIiPRkZgnAGb6T0S8AHOPLEhERERER6YnkYb5zUScAtEnu4csTERERERHpiOSDSa71nYu6AeB8M9vIlysiIiIiIrIIgB/4TsWgQfIoX66IiIiIiMgd5JwPJrmoQzFoALiF5K6+fBERERERkRBCCGZ2HwA3+s7EsJFz/qGZFf48IiIiIiIiAcApvhOx1Mg5v8afR0RERERENnA554N856FbkDQA8OmdAsCtJO/nzyciIiIiIhsoM7sPyT/7zkO3yDm/Oef8Ap/eLapJ7SIiIiIisqEzswjg277T0C0AnGdmrTA3ZOvr/ni3IPlCf24REREREdnAmNlzfGehW1SbDD5qQd7tSV7nH9cpAFxL8h53PLuIiIiIiGwwSG4L4CrfWegWAN7eoYxX+sd1CwBf8flFRERERGQDAeBrvpPQLQCc22l3czNLAH7kH98tqrkjIiIiIiKyISnL8pm+c9AtSJYLh155JHcFcJvP1ykAXEPy7r4MERERERFZocxsGwC/952DbtFp6JWXcz7C5+sWAD7p84uIiIiIyAoF4NO+U9AtAFzQaeiVZ2YtAD/2+bsFyX19GSIiIiIissKUZfm3vjPQLfoNvfJIPhDAWl9OpwDwOzPb0pchIiIiIiIrBMmtl7rqVT8DDsU6zucXEREREZEVAsBJvhPQLQCcX2folVcNxfqpL69TcM6TfRkiIiIiIrLMkXw6yUWdgE4BYP0gQ688knuQLH25nQLARcN0dEREREREpKGqoVdX+MZ/txhm6JUH4N2+3G4B4G0+v4iIiIiILFPVsreLGv6dAsD5JO/kyxiUma0G8H++/E4BoCT5CF+GiIiIiIgsMyQfCwC+0d8pALSXMvTKM7M9SWZ/nk4B4JxRdHxERERERGRKSG4C4Fe+sd8tALzDl7FUAN7jz9Mtcs5v8flFRERERGSZAPA+38jvFjnn88YxGbwaivVLf75OAeBWkvf1ZYiIiIiISMOR3IskfSO/U1RDr/bwZYwKyb0GGAb2PTOLvgwREREREWmoauhVrbsOVaN/5EOvPADv9eftFjnnV/r8IiIiIiLSUIPMuwBwAcmNfRmjVnWKLvXn7xQAbiG5ky9DREREREQaxsz2BFB35ak8zqFX3oCbIf4/M0u+DBERERERaQgzW02y1t4bVSP/nb6McQNwoq9HtyD5Ip9fREREREQaguRbfCO+W1QbDo596JVX7cr+e1+fTgHgj2Z2N1+GiIiIiIhMGckHAZj1jfhOMe5Vr/opy/IZvk7dAsAXfX4REREREZkiM2vlnE/3jfduMYlVr/oBcJKvV7fIOT/X5xcRERERkSnJOb/eN9q7BYALxrHh4KDMbJtBhmKR3NaXISIiIiIiE1YNvVrjG+2dohp69ShfxrSY2d/6OnYLAJ/2+UVEREREZILMrADwE99Y7xYA/s2XMW0APuPr2SlIZpKP9/lFRERERGRCSL7ON9R7BYCP+zKmjeS9APzZ17VTALjIzDb1ZYiIiIiIzIs+QUaD5K5mdlZRFKv9sV7Ksnz2zMzMyT59mszsADP7VEr99x0E8OGiKF7l02W0SN4jhHAfn94A16eULvKJo0TywSGEO1Ud35kQQv8P5tJZSumnPnFazOw+ZrZtjDFXG4Ku8o9Zihjjr2KMN/r0QZjZX5nZdgvTUkqnL/z/tJjZpma224IkhhDKGOO5MUYuSB8JkvcLIWwT5s59YAjhpUVR3OExAMzM1sUYz4ox/ktoyOtFcrcQwuoFf2dlCOFPKaUr3EOnguT9Qwibxhg54N9Cu8ozE2O8PMZ4jX/AckNy9xDCjJm9KIRwsP+Mzcs5r48xfivG+IEQQjuldJZ/zLSQvHcI4Z4+fcys+lxbCGFtSulX/gFLZWbJzHav/o6a1PYuQwg3pZQu9gdkmQJwir9DUCcAXGVm2/jypg3AN31dOwUAlGW5j88vo1FtZnkwgLPr7lo/qSBpAK4meTDJHXzdh0Fyv5zzS6oyD66e+1qSNh++HuOI6lxv8vWbBJKP6PAa/Hpcr0H1Pp5C8mBflzpI7lDV8ZKFdavKfS/Jf/B5JoXkxiT/AcCXfd2q+GjViB0JM9u+ei3+OOj7VNXnwySf5cudFJIvAbDOv1YAfknyMf7xk5BzPsD9LVw7zN/CwjwAzlhYZvX3tqs/d1OZ2Z4kXz3I83evw1S+2xYysy2q9/PCYZ7HUsJ9Fq5f8Fk4yMye4+s6DJIfG/QzOomonvNVJPf3dZZlKOf8Ev8mDxIAPuvLnDaS9wZwg69rpwBwrpnN+DJk6QCc7F/vJka1keb9fP3rIvlsAB8jub5JX9hmNpF5WiQ3AfDvJI8j+ftpvAbVD9MXSd7J168XMzvAl+Uj53y4zzcJZraVr8vCqJ7zyWY20J3rTkjeD8A5/hzDRLWJ7USRfKWvh6vTn8xsT59v1EjuCODfARxH8jOT+FuoGooXATgOwLt8nZqE5FMBXO+fw6BB8gSSz/DlTwLJuwD4mq9TU4LkiSQP8fWui+RXfZlNC5LlqDpbMiVVQ33JXwbVClSNQvJlvp7dIud8lM8vI7HotW5qDPMZJrkbgNNI3urLa0qQHOs+PQA+Q/ICf95pBcnNfR27qd6/S30ZPkj+n887bmaWAJzq69IpzGxLn38QJHck2fd1GCRITqwhnHM+uE5DH8BlZraLzz8KZrYpgK+R/K0/76SD5FkAPuLrOG0kn2RmN/n6Dhskbyb5dH+ecSP5CF+XpgVJVL9Nf+Pr30u1Quii8poYJG/z9ZdlBMDX/Zs6TJBs6lCsb/u6dgoA68zsIT6/LNmi17qpQfJpvvLdmNmWAH5I8mZfTtMCwKkkN/bPYSmqxvHRAK7x55tmkMxmVndMfSD5BF9GpyB53iAdm1Ews4IkfF06Bcn7+vx1mdlMzvkqX+YoAsDRg7wfwyJ5vD93pyBpox5yWw2TO57kdf580w4A15B8ra/zpJlZJLlH3SX+BwmSHxz0rudSVXNXFtWliUFyDYAzSdaap0KyUd/pvaK66CDLUc75wDpXjepGtQRuo5jZfeoOxco5/0xDsUZu0evc1KjbASF5z5zzr33+pgZJyzkf6Z/HsMzsISTf78/ThCCJQYbZmNnevoxOQfLGSc9tqDogt/m6dAqSb/f56yL5OF/eqKJq8I99uXOSH/Hn7hTVUKXH+fzDMrMtAHzHn6dpYWZvrBbDmAoz23Scd4YGvcq/VCQf6evQ9Mg5/7bOXEeSV/q8TY1Jd0BGNtluQ0fynjHG99ZZKaquGOOLyrJ8pk+fphjj5Wb2ep/eSavVehSAWo+VDRPJ+5P8dqvVGsswjnEwsyvM7Oc+fRg55xeRPDelNPWrql1EM9vLJ47AjSGE3/nEBjnPJ9QVY/y6TxuVlFIoiuI51VyWFYXkJmb2uaIo9vXHmibG+C4zO6csy2f7Y5MQY7wtpbSjTx+hp0/4M9akVaFqabVaO5rZ96pV4kSmZ1RDr3wA+B3JTfz5pq3uKl/VikU7+/wytEWvcVOjzoTGQffKaUKQPMU/j2HknA8Z5R3TcUQ1ZKm2Ae6AXEXyr33+cRrwDshBPn8dOeeD6p5jKWFmY12Ce5J3QKrhRK8i2fg7Hz6qu6Ev8M9p3AAc4+sy6qhzdX9USD606d+F3YLksf75LJRzHulcsHEGgMYsNS81kfxH/0Z2i5zzJWVZ/syn9woAH/LnnDaSO5Nc6+vaKQD8j88vwyH5L/71bWIAyP0aJiQfRfIyn7fJQfJqkg/0z2VQZnYAAPrymxYAbhnkAsgAHZDTfN5xG6QDYmYtn78OAD/3ZY0jSJ4xzrkgg3RAyrLc2+cfFMn1vuzlEgBmJ30nZBKLdAD4/jg/YwuR3BjAO3wdlkOQ/FOvi23VhZZF+ZoYAI7z9ZcGI3lXANf6N7JTVFeL9qrmUdRqvC/Iu58/97TlnN/g69kpqqtEQ+0pIHdE8kHVngK15uFMOkjeQPIGM3t5r/k/ZpZIvtDnb3KQvLbaAHJJqg2p/suX36QgeUP1OdvdzGoPjxigA7KmunAzMQN2QIYafmJmP/RldQuSNwP4Asl7kDy07u/Igvx32ORxlAbpgPS70NCLmW00yGvW1CB5s5k93D+/cQBwIsns69Atqu/k6wFcR3Kgix4k7+rPPy7V3+eHBq1jE4Lkkb0uWpB8PIAbmtrRNrObAHx7qav/Dar2D4t0BuDEoigO9OmdAPh4URSHhLkP5CEppY/5x3STc/5NSmn3lNKt/ti0mFmL5GlFUTzaH/MA3BRjfEhTds9dCQB8OITwgGon024shLB5jHHzlNLAV+5JXmJml4e5naJ7iSGEm1NKz48x9h22U+2S/bth5kyRvCDGmEmuCSGsmcBcthhCWBdjfHlK6U/+4CCqyaNvLYpiqDkfJG+NMV5c/bsMIdxcHZr/Lre/PHpwZrZpjPH7RVEMte+Eme0dYzzVp3skz4wxPmYcu453Y2aFmd2cUup7R8fM7jzMTvAkT00p9b0jAOCSGOPeKaU/uvQvF0XxdwvTusk5/7LVag38N10HyY+klF7p0725tmLYO6X0I3+sHzPbkuSXiqJ4sj9WF8nfxBjXmFlpZjeGEOa3/q77dxBDCFumlIowV6cHp5S6XjjpheQbY4wfijGu88dGpeoQ/G9KqdYKkyTPijHuMf93RvKIlNJ7/OO6AXBaURRDdzCHUU3wf/KCncnHJS4o30IIm6SUVscYh+pIknx4Sulcn74QyeeSPDTGON8R6cRCCKtCCJsVRfFIf7AfkreY2a9CCLdUv9u92vkphHBjjPFlTWpbSg1lWT6t+rD0DQCX+t4lgNP843oFgA8szN8EJB9c925OtYSvTEF1x+F//XvSKwCcRfIuvqxRqJaYXnTOXkHyHAA9x9s2HcmHDTPWmeRXAXyaZKMWpfAGuANyhs87bpO4A0Ky7j4jXVcWq3t1m+S1oxj+1Mkk7oCQHGrD3upq7acBfMjMNvXlLkXO+eUkP13N81p07l5RvRZ392WOUrUh5aJzdwuS2/oyALxjgOWof+vzr3Qk30Dyu/616Bc55zePevliAEf78/SKanPQgfffkmXGzLYCcLn/AHSK6otp0bJ2ZvYQAOv847sF5wz1ZT9OOec3+bp2C5K17hbJ6JF8QN3Gb7XO+ZKHG3Uyv+eFP2evIHlO3XXXm6paYvTL/rn1Cs7tzP1hX1ZTqQNSrwPS6fcgzJ04DbIwA4Af+DJGYdwdEJI7ATjDl9crqnMdRfJJvrxxAHBS3e/LBXX81LjmTZC8H8nz/Dm7BYATuu21U909XZTHh5ndlHN+sc+/0pnZDICvDPL+A7BxDIsE8FZ/rm7RxK0bZAwAnOjf/G4B4Hiff96gk4oB/GbUV32WyswKALUm1gP4/STHlcpfVJO+F70nnYLk2CajVRu1Xe/P2S2qTevu5ctZbqofp0XPr1uQ/F8ze6Ivp8nUAVlaByTMnXybAe4qX59zHvlcmgl0QPbzZfWK6jwv8+WMUzXE+Ekkz/X16RW95r4tRXXxbtH5ugXJx/gywlw5dwLwB//4bgFg4OF1KwHJTQB8z78evWIcd8CqUQiLztUpSDZuwSIZsbIsn+rf+G4B4HdmtoUvY17V067VeF9Q5r/7cqaN5G4D/Gh+1ueX8SO5+wAdkBN9/lGpOiC1N2daKUP3cs5n++fWLUie27QLDXWoAzKSDkhB8qU+T7cAcNyoG73j7ICQ3A7ARb6sbgEAOecX+XImxcy2Ill7Z3sAP/RlLFX1mTjcn6tbALiR5CN8OWGurFgNAVyUr1MAmM05T7Tz1xQkNxvkrtOYOiA7+/N0CpJXmtlqn7/Jxj15c8UheeeU0kd8ejcxxkNjjPMTRReJMZYppUOqoVi1xBhfNeiX/rillC6IMb7Dp3cSY3xhWZYT3QVZlieS7RjjSDb9myaS904pPcCn93ByjPE2nygrX4wRMcZzSF7tj3VxSM55IsOSRiHGaDHGWntDkVxjZq9rtVpTu2gVY7zRzGpfBIkx7jLqhqiZ7Wxmta9uV5sin+3TQ/X6m9llAC7zxzopimKjoij2HGQ57pWimpi93qc31IyZLZrz02TqgAzIzN5TFEWtTaAAnJBS+l+f7sUYzzezWo33MPdHkczsY027QhpjfA+AM326l1IKKaUPkbyzPyZj1Ws1jEmr+93zx5TSW33icmNmJ6SUNvLpnQD4RErp7T59hem1ctsGL8Z4fgih1oWuoihiSml/v8hJE1VX3/etu/qdmZ3TarWmvvhKURQHk/xvn95JSmlbMxtZnc1sFcn9i6Ko9f0N4Ip+G8qllP4QYzzUp3cTY3xxCOEJPn0DUet1b4AtQgiP94lNVu9bQEKYuxrzlKIoXurTOyF5WYzxCJ/eTVEUx1SbWNVSFMX9Sb7Np09TdTfnMAB9l2EtiuKeZta4oWQrnPmEaYkxdl0z3WlMnZeoVmebZEgpbQh75uxCcl+fKHfwLZK/9omdFEVxaN3P2JS16o5TN7ObSb7Pp0/RIT6hmxhj12HXgzKzmFJ6r0/v4aczMzN1hoENOmxvpXwXr1RXp5Q+6RObTB2QmsxsSzP7qE/v4bCU0i0+sZsYY04pHQyg9u2+Jg7FijGeE0KotWpPURQvblr9ZSJyjLHvHgOVu+Wc3+wTl5sY4/z+BD2Z2TXVlayV7qYQwqU+ccyWVQMqpfSLapO+Wkj+B8mNfXrDxBhjrVWiSF47MzPzTZ8+RZvWHSptZn0vwtVlZm+ve8eI5KUxxnf69E5ijD8m+Xmf3o2ZHW1m2/t0aYxavzFNUu9TLYHkmwYYevXxlNL/+PR+hhmKFUI4rmkTj2KMR9W9ctfEoWQyXjFGCyHUmoScUto4xri/mS3b7yqSh1UbRvYVY3xZtYHUSnd3kk/1iWNWawhck6SUjiRZa/PWoij2GeWV93GIMbZjrD2i5WKfME0xxitijP/k07vYJ+f8cp84jBjjAT6th1tTShf6xE5ijDeR/CmA7I91UhTFbmY2lqXZm6paUnnZ/vY0nV7YGkg+OsZYa+diAJemlN7k0+sadChWSmnXpg3FSimtAXAogL67HFdDyf7Np8uKFwFc6RO7eBTJj5pZ3WFbjWJmD0wp9b3qW+0qfe0kdweflpTSJimlx03qin21tO1pdXZBb5JBJ0BXy4Y2Fsmd6rQ7SFpKaWorX3USY8whhGt8eicxxo1jjLUuWPZC8t51Xq95ZjbQ+18UxfEhhFN8ejdm9vkNaTJ61TYZZGf02r1rGeCDvaEiubGZfTylVKvxQ/KVMcYbfXpdMcYyxviKurd6K68iuZdPnKZqDGqtoVgxxleTfKxPl5UrpXRVjLHWXIeiKGKM8RCSH6yWwF5uajWyzezsGON1Pn2lSik9I4RwAslnl2W5f1mWTxlD7E/yWSS/0Wq1BmlINEZRFIeRbPv0TlJKd+u2/0MTkPxMSqnvbtFmhlEOYxoVAGvrXFhLKdUedtmLmX0upVRrbg/J24qieJ1P76W62FF72HdRFDuklNb49JWI5LYxxj1SSrU6FQBOCSHc6tOlu1ov7IYMwDFFUbzBp3cC4ISiKGo1qvrJOb+51Wod7dO7AXBWSumvY4yNWV3GzDYFcFar1drFH/MAXJhSemh1lUnGgOTuIYQz64wnJvmplNJLfPookdzJzD5dFEXtBlN1l+D9IYRZf2zM1qWUag+PXIjkF1JKz/fpnpk9N8b4ZZ++nJjZ3jHGU316P9X7OhZ1Pu+emd15mAtJJE9NKe3t0z2S+6WUvuPTOzGzZGavSym92x/rBMCPi6JY0gUdkh9JKfWdp1W9b3unlGptVpdzPqvVanXcn2KhnPPNKaV7VcugNkZ1oe9HdRqlJN+TUqrVduikLMsnFkXxqZTSPf2xTki+JqX0QZ/eT3Xx7+SU0tb+mFft+/KGVqs1yKT4Zaea8/uNlFLtC7skd0sp/Z9PXyqSO6eULvLpHskrUkpLvusmDUHy0QDK0GHTFx8ALh9286pOzGxVzvnn/jy9otpVvVFIPr5aFWtRfX2Y2Rt9fhmdpmxEuBDJ7Uie7s/fxCBZq8HoVRM9F5Xno9p8blmruxFh02PY7/JRbETYCcmt6/7tArhuqbujj2sjQpK/8mV0CgAXN3GoT7Up4Wd8fTsFyVodxm4AnODL7BbV+7C5L6MuAOf4MrsFgD/7/CtFzvmNJL9B8iz/vHtF9fr/tS9vFAbYiPByn7fpBr80tIGYH3pVFEWtoVcxxlcMc8WsmxhjO6V0CMnadzTM7M0kH+zTpyml9IMQwrE+vROSb2la/WW8UkpXm9npHOcl8BFJKe1L8nvLdS6KLF8xxpsHGLK4TYxxTzNb8hCgaYkxXh9CaNx3QvUbX2uBlaUg+Tcxxr/36T0cEGNc6xPrSik9u+rg9hVj3BzAe3z6qJnZRiSfAuASkhOJlNI7U0pPSyn1vUu3kJm9PYTQceNHkYEBeKfvYXaL6krFWJD8V3++XpFzPqNpPzwkNwdwka9rpwBwuhp449HEOyAhhGBmBclf+Do0NUh+x8y28c+jG90BWX7RtDsgYa5SDwdwnS+rUwDIZVk+zZdR17TvgJAcqAE4SWb2b76+nWIpd0BIHujL6xYArjGzJc9vyjmf68vuFiTPXModl35I7ppz/j3JWqMnphkA1o9zbqLugGxgSD4qxvh6n94JgMuWMs6znxjjMQBqX3FptVp7mNnY6jOMlNItdV/PoigeA6DWimOyMsQYYWbLZmJjSmlfM9NnVCYqxnhOjLHW5q1FURQppSeZWaOX5e1mQ54LSPLOZraHT+8mxnh0tf/WklSLQtSSUtp9kI0ZB2FmDzez01ut1j2rrQYay8xujjG+cmZm5lv+mPTX6Dd3GsxstZmdkFKqdReB5GGjHHrlVeumH1Zn5Y15DR2K9XUAn/PpncQY30Ky1r4JsjKYWe2VWBpi0F2ERUbhewB+4xM7KYricDO7i0+XZosxbl8UxSB7iPSdEF9T39XJFhpH57Ysy30A/E9RFFv6Yw11fkrpEz5R6lEHxDGzw4uiqNV4B/CJmZmZgTccHFRK6dQQwkd8ejdFUWxsZh83s0Y1kmKM/wzgDz7dK4pitZmNfYypNEeMcTOf1lQkzw4hTGyImsi8lNJZdTfxDHO/Z8c2baNa6Y7kZiTf5dO7IfnDEMLJPn0YMcarSL7Fp/fwXJKP8olLkVJ6ZqvVWhadZgBXmdlrfLrUpw7IAiTvb2Zv9umdVEOvjvDp4xJjPApA7Z1hi6LYA8A/+/RpSildS/LVPr2TGONTcs4H+nRZeUi+Nsa4q09vIpJtMzstpVR7WKTIKMUY30TyMp/eSVEU+5rZsunczzOz2ouvrDCbF0VRa34QSTOzc1JKf/THhhFjXBdC+FG1amVfRVHsFEJ4sJkt+Q6MmUWSfxdjfKE/1jTVvKcXxBgfnVI6zx+X+tQBqVQTYY8vimJTf6yTaujVzT59XFJKt5J8xSCLBaWU/pXkg3z6NM3MzHwFwOd9uldt5PR+M9veH5OVo9oJ+8l1NiebNpKXxBjvOs45XyL9pJT+ZGY/9endkBxod+wxq9VYBbC9mW1w7RMzG2QfoPNTSm/yiUsRY/xJCOGdPr0bM3u3me3s0wdlZn9lZl9MKQ21+MOkAPhtCOEfUkr/mVK6yh+XwdT6MtgQ5Jxf22q13u/TOwHwiQHHaI4MgA8XRXG4T+8GwM9SSns1aVIfyW3N7LyiKLbzxzwA3yiKovbkOOmugRsR3tXMPlQUxfP8sW6qDvh3QwjtMPfDlavdZznG77MYQsgppX+KMd7mD/ZD8vMppRf4dI/k36eU/sunLyfDbERYvaft6n0dtW1TSo/0if00aSPCbgCwKIq+n3mSN4QQ9ksp/dwf62ZcGxECuLAoir7z+3LOf04p7dC0jQjD3HM+IqXUd4jwMBsRkrwupVRrhT0AZwyyiWtdJI9KKb3Np3dDcqeU0u98el1m1gLwslar9TF/rCmqz/m7UkoT32tNGxGucGa2C4A1ocPSZj4AXDrsEo2DMLONzGxTM3v42rVr95y/E0Bys2oo1qK6dYuc8+1fgmY2k3N+9bp1644ieVTO+dB2u71ntUTr5pMaL2xmz/H17BYkX+zzy+CatgwvyX3q1qeq03dyzv/qy2k6kl/wz6VTAPjPQZb3baJBl+E1sx9Wm3/13Sl+GNUS4G8leb4/d68Y9jt+nMvwLmRmEcDRvtxukXM+3ZfRy7iW4c05n+nL6BQ551tJNm7oGMkdAHzf17dTDLoMb875BSRv8+V0CpJtkkMvs9wLyYeRrLVsfpj73vqgmW3ky6mL5J0BLCq3SZFznnjHY95KXoZ3g2dmBYAf+jezW5Rl+RRfxlKR3K7dbv91zvlwAB8B8E0Al+acr64+WAbgN/NfyCQfX23ctqh+nQLA7PxQLJIbVxPBFz0u53wNgCsAfBvAx3POh7fb7ceSvNcoxnl6AP7T16FTALia5NY+vwymSR0QkncF8GN/3k5Rff6/MY5VVyYBwCf8c+oUVWOusfsf1DFIBwTAqSQnMuG0ajjWvnDT9A5ImKvkFnX/ngFcm3P+B19GN+PqgAD4f76MTkES49xnYlhlWf5t3decZN+7JAsB+D9fRrcAUGsO0LAAfMqfs1tUc1GW1AHxZXYLkleSfO4Q8TySl9V973yMo/1TlzogK1jO+dX+jewWo9hwkOTG69evf2jO+RVlWX4awPkAbvDn6hQAbl8JC8CH/fFeAeAn86tikfybalnfRY/rFABuBvALAJ/NOR9O8pFmVmuuTC8ktwXwR3++TlF9IcoSNKkDYma7+HN2CwBnNfFqaF0Ajql7wWAUG4pNU90OCOcc6fOPE8l7kVzr69IplkkHZIbkwb7sbgHgk3UbUuPqgJDcgeQ6X46PqgNyZ59/2kg+1de1U5C0Qe7W5pxfU/ezWZU/0tWnPJLbkbzEn7dbABh66OggHRAAP/D56yJ5z5zz80iWvtx+Mc3OsDogKxTJ+wO41b+RnSLnfPkwP0pmFqsOx6EAvgjgd3UbgT4AsCzLx4e5um9Wd3fx+SB5+1AsAB/zxwcJAJcD+GrO+dXtdnv3YXcvzzn/oy+7U5C0ce42uiFoSgekGvN7uj9npyBZAqg9KbKJzGwVyQv8c+sUZVk+YzlPvh2gA/LzaSwTXneIyzDf9WHCHZAwd76HDnABq12W5bN8GZ2MqwNSdYAWldMpcs615pVMStXhO8TXs1OQXFt36LCZrSb5VV9GtwBw+STuBg9yR4bk1T5/XZPqgMzLOR9Ud8j9fExzXzV1QFagaujVD/yb2Cmqxm/toVckNy7L8kkAPlrd4ah19bNOAPjN/N2HsiwfTxL+Md0CwBqSDwwhBDPbEsDv/GOGiWqIzIUATijLcv9BrlabWQLwHV9mpwBwRROvii0XDeqAzOSc/+TP2SlWypdq3TkIANrDduabYIAOSO29LEalWulwRXVAwtw5X+/L7xbVeP2+jdcxdkBWDfAddIXPP01mdrcB6v5tn78bkgf6/L2C5F6+jHEwszfWvXNL8vph795OugMS5jpXn/Vl9wqSa6u79hO3kjsgy/ZK2wi8NMa4j0/sxMz+Y2Zm5hSfvpCZrS7L8sllWR5rZv83MzPz3aIoDi2KYrc6K5XUVRTF/Ui+I8wtafsDMzvOP6abhRv8xRhvMrORLOGXUgpFUTygKIqDZmZmvmVm852Rp/a7dRljZIzxlQBu8ce8oii2N7OBJvZJI8WUUt0hfCP725mmustnF0UxA+BlPl2khx/V3R09xvgqM7u7T58gDPAdvjnJZ/rEaaju2r68zgqCYe7xtb+3Yozm07oB8L0Y4+99+jjEGI8xs/U+vZOU0tYAPuTTmyrGeBLJ2iuDppQ2Jvleny4yMJL3BHCd70F2CgCX9boatn79+oeVZfmBan3oRfnHEQBAcp8w91y2BnClf0yvIHnYfP0BfMkfH2UAuBLAce12+9F3eOGcnPMrfN5OUV1xq303Sv6iQXdAVtUd79y0q6DDIvk4krVu+1dDapYl3QGZ/B2QMPc9foI/R7cAcEq/u9TjugMSqt8sX063ILme5BN8GdNQ97szzL3Gn/X5OyG5M4CzfP5uYWYH+DLGxcxizvkAX4duAeBPZVk+25fTzzTugIS58z6J5Hp/jm5B8s8554lvlLiS74BskACc7N+8btFp6BXJjXPOLwHwvVEOrxokSN6+KpaZPbHqzS96XKcAsJbkDtVz2RbANf4x44ic80/a7fZhnVa+qZaV/K7P0ykAXDyp5YJXkuXaARnkamKTkbzFP79OQTIv10UX1AGZTgeE5N1J1r4IRnJbX8ZCY+6A7ACg9u8VyQ/4MiaN5Ld8vboFyatJ9t3jKoS5326fv1eQ7Luf0ChVFzhrt3FIDrxQz7Q6IGGuLXiuP0evIDnx72V1QFaQqge76M3rFNXymbcjefeyLN8OoPbqEOMMAO+brxuAT/rjvQLAt+bz5pyf74+PM0j+af369e83sztsmkNyx2oo1qI8PgAcszCv9LdMOyAA8AVfxnJUdwnS6nkbgI8ut/kg6oBMpwMS5j5fX6g7Zj/n/Auff6FxdkDMLFUN6UXldYpqz4vb79pPUrVs/Zd9nXoFgG/6cjqpFpKpNRcuzL0O/znp74PqvXq2r0u3qO5YDbRYzDQ7IFWb41p/nm5RPb9/nuQCGuqArBDV0KtaH7Zqw8GNwtwwq4cC+ETdvJOKaqWNR1TPbdtu+3t0C5K3jzWvltFb9JhxhpndBOCz7XZ7j/l65JxfUaeRTLIk2XNYl9xRkzogOedBbn2fR/Kevpzlxszu5p9bvyB57HL6nKsDMr0OSJj7Hm/7c3UKM7uJ5EN9/nnj7ICEv3wXDbQICslDSQ68q/2wSD6W5EBDlDm3J8YqX1YnJJ/s83cLkjfnnA/yZUwCyX19fXoFyb/3ZfQyzQ5ImDv/Pv48vaL6zO/syxkXdUBWCABf8W9ap6ga9o9dt27druvWrftcznngdaMnFQvvZJD8u7oNzCrvn+fvQpC8+7Q6WNVV7i+32+1HVe9TrSFyAC4gufHC91i6a1AHpADwfn/OXmFmZ5N89XIejmVmmwL4jH9u/aL6wXtzWZb7+TKbRh2QqXdA3uXP1S0AnOnzzxt3ByTMneNIX16/ALCe5KtJPsyXNyplWT6b5Dvqfle6+h1ftwNSdw+sqtzTfP5JMbPtB9msGcAX+w3xW6gBHZB7Azjbn6tXkPywL2dc1AFZAapdYBe9aZ2iLMtb2u32VwH03TBpHDH/xZdzvg7AlSQvabfbXynL8kskv0TyQ7Ozswe12+2X+wl61XCVRWV2i4UdmLIsnz4/OX+YL9+lBuYcW80TWXS8U5A8YuHzl+6a0gEJc3WpPRHV1evbAE7KOb/Ul7kcVGv+D/Q3Oh8AbjOzkwD8B4BjfdlNoA7IdDsgJDcZ4G/8WpLP82WEuXLe5x/fKTi3RP3ePn8dJB9E8hxfZp2o5oadBOBEAMcOOzeC5POqJek/UW3UeBKA2kvbuzpZ3YY3yX8ccN7m13wZk5Rzrv2bHOZei65317xpd0BCmOtkkfypP1+vADCRVbFWcgdk2V5NHEQ1Iez8lNJd/bFpAjAbQrgphHBhCOFGAOeklNaSPKvValkI4bIY460hBMYY2z5/JyTvGkI4L6VUa6lFkoHky1qt1ier/28XQrhXznmm1WrtnnNeVRTFHma2bYxx5xDCZkVR1LrCMywAoSgKn9wRgDUxxkemlH7tj8kdkdw9hHBmnaUkSX4qpfQSnz4qJHcMIfy2Tl06IdmOMfYcxz5qJG9IKT0lxlh7+cZOcs7/kFL63LDPfR7JX9T9XhgUyRBjPCKldKo/1ouZ7R1j7JuH5M9SShMdWmZmhZndnFLaxB/zzOzOMcYbfXo/JE9NKfVtkJPcL6X0HZ++VGY2Y2YvSSkd7491Us3FelFK6eQFac8IIZxQ5/cSwGyMcZ+UUte7Kb0AeG9RFK/z6YMiORtj/JVP78fM7h9CuCqltOQhNTnnf04pfTSl1HfpWgBnFkWxu0/vpFq8YteU0h/8sUkheRcz+2xRFPv6Y50AODXG+LSU0hp/zCN555TSn316JwBOLYri8T59FAAcUxTF7Zs190Py1pRSz20GRoHkzimli3y6R/KKlNId5tVKA0xjfoMPALfmnM+urt6+rizLJ87Ozv5Vv30yhpFzfq4/f68AcD3Je/lyPDPbysx2KcvyqQDeVu3sfn7d5UXHFQB+ZGb1eiwbsCbdAakmN9a+K9mUyDmfYWZb+uczCDNbBeCjvuymBclZM9t7kGFvugMy3TsgYa4ODwNwkz9nt6gm1t6wIGrf+Sf5r0v57jWzjQD8ry93uQXJo/xz68bMtiD5C19GtwDQcw+ySSH5eV+3XlF3eHQT7oCEMPdZJPndugs5VPX5Psm+FzSWYiXfAVnxSO5Xt9E1qqiW0fwNgK/knF9VluUT6i7LNyoA/tPXq1fUXbnDM7NI8h5lWe6Xc35Dzvkbk9wTZT5yzq/xdZM7alIHJMzV5xGTWgJ6lDGqJXJJHufLbmL02zNiIXVApt8BCXP1eJ0/5zii2oV9yeouwd7EIHm0fz69DHLxoRrWtbUvYxpIvmyQi41lWT7Jl9FJUzog8wYdek/yzb6MUVIHZJkys60AXOrfqFEH55bMvBjAiTnnF5vZLku5KjQKZna3QSa5hblG/EiG3JC8E8ndcs6HAPjvQesxTJC8jeT9fV3kL5rWAQkhBDPbk+RUFj8YNkj+guQD/HMZBsljfflNCpJZHZD6GtQB2QvARf68ow6SI7nwUy1McYovv+lhZv/mn0svJO9L8ue+nG4B4DPjvsI+CAAX+jp2i+ouXF8N7IC825+3VwA4k+SuvpxRUQdkmQLwcf8mjSoA3AbgBznnI9vt9iPnl+xtkpzzc3y9e0W1Ktb2vpylMrMt2u32ngDemXP+8aBXGOoGgJGPqV5JmtgBCXP1ekzdTfqaECQt5/xG/zyGBeDddd+XSYc6IINpSgckzH2uxtq5JXnh/Ia2o1DtufFZf54mRnVn4kj/HPoh+VpfVreozvFAX8Y0lWX5NyRnfV07BcnZnPPBvgyvaR2QMFen9/pz9wqSr/BljIo6IMtQWZYjH3pF8mYA38w5HzTKL95xAvBF/zx6BYBv+DJGjeTOOedXAvjBqDsjJF/kzydzSD6q7t/EpHd8rVbEGelnYZxB8lD/HJaC5B4kv+nPM+1YgR2QWkNIqkbRwJrUAan2vfqVP/coguRv68wbHFQ1Dn+PQXZ1n3RUe1D1bVh3MsjQOADvNrNNfRnTBuBGX9duAeD7Pr83SAck5/wjn38cqt+jRefvFiQvMLO/8uWMgjogy4yZbZFzHmiTo24BYA2AU3LOB4/j7sC4VUOxau+2OpfFDvDljAvJ++WcX111Rpa83wqAa0nWWgFsQ0PygfPLLPcLAJ/0+ceN5ANyzn+oe4VtWkHye+O441lNyP1k04akDbJQBsnH+/ydguT5Pu+4VR2QWhtgkvyYz19H1bFaVJ4Pkvv7vONAcvNBN/yrE+P+fqgman+D5DVN+T4geQ2A48xsG1/fuqpl4xeV3SlIHujzN0G1xO6i+vrg3AZffS9kmdmWOeerff5OUc1tHTsza5H8p7qfPZJvHdfu6CTv58/XKarfDZk2AB/zb86gkXM+J+f85nXr1u3iy19ucs5/P0hvHsAN0+hsVTvOvwPAr32dBgkAX/VlyxySh/jXq1OQfKHPOykknwXgJ3Ubi5OOnHPtpRqHUXVEPl+9BlPtjJA838xW+zp2Q/IBAK7y5fgg+XGfd9zMLAHou7M1yQuHvfIMoO/+GQCuIfkIn3dczGwrkr/09RgmSF407s6HR/KZ1d/CWl+fcQfJq0j+pBoatmRlWT4NQN/nUa1G9hifvwlI3oVk3/lFJGstrRvmynyYz++D5FiWHO+F5Kd9PXxU80+f6fOOSrVJ9CX+vD5I/rfPKxNWluWTB2lsLwwAt5Rl+bmyLJ9gZi1f9nJG8rHr168/MOd8JIAv5Jy/RvLSnPO11YfXvxb/M63XwMxWV0v9fg3AUI3QYTemWumqW8sfq/ag6fS6zeac/8nnmwaSBwI4nuTxJH/mP6OTjmrux8DjvpeC5OMWvAZfna+Hr9s4guSPhmmIV8vAdryIUI1rP87nmZRqCeRv+XotqN/pw87/mEfy/d3eo2oDvT19nnEjuXX1ObrS16lukPzJNO8uk3w+gI9WfwunVnVaVM9hY74skl8geXz1eo28o0jy+SSv9+efDwBXlWX5NJ+vSUjew8y67h5O8pvVfJdaqpEaHyDZcdGganncfxlkSfBRKMvyWSSP9/WZDwA3k3yuzzdqJHfotWknyS/7PMvBRN/McauGCpyTUtrJH+sl53xFCOHEoig+F2O81B+fNjPbyMxWlWV571WrVm09OztrG2200YNCCHcBYCGEsGbNGtt4443jzMxMDCGE2267jTMzM7HVaoWUUogx3ppzPsvMbp2ZmYkxxovNbLMY41ozuw+ArWKMD4kxPtTMdgoh5JTSk+tsqjRO69evf3Cr1XqRmb2o1WrV2mU2zF2J/FOM8UEppev8MZmbTFgURad5TJeNY4O0pSK5Hcn9i6JI01phjuTNrVbrCz59kki+gOSdUkp3Gvf3d4zxi8NsxhfmvrN2MbN9fDrJ3Gq1PuHTJ6m6sPKSLp+jr6aUljyUIef84pRSpztHZ6aUzvWJk2JmDzez3c3sqBjjdr02wyQZzKyMMb6qSvpKU75PzWxLM3s6yWJUfwsk16eUZlNKYx/mQ3KvEEK3CeZnp5TO8olNU80BeqpPD3PfHSfEGOHT+yG5Wwih052fz9TZ1HBcqrmliy7GALhoZmZmIhPjzWx7M+s0dJMppYnfUR6FJf/RNgmAjxZFUXtyKIALzOwDRVF8PcZYa8m4cTKzVWa2I4DtYoy7xRh3NbPtYoz3N7NNY4xbF0VRkAy9fjjqyDnfEGNcH0L4dQjhOjM7w8wuL4riVzHG38cY1/k801RdITkoxvjCoihq7VoL4BNFUbzcp4uIiIiILBnJRwOotYNlzvln69ate3aXK2ATQ3LbsiyfnHN+bbVfxqUAylHeVh4mAFwB4LtlWX6oLMu/I3lvX/dpMbONcs4H5Jwv8PX2QdLKshz7ajMiIiIisoExs9UAzvUNUB855zPKsvw7M1va7YMhkdysLMsnlGX5tpzzqQC6jgNtUlQrgZ1VdUieOeld3Tsheaec80sA/MLX19X9t4Os4iMiIiIi0heAD/qG58LIOf+qLMtnT3oCU6jGSeacDwBwEoChJwA2KQDcAODknPM/mdlUVwmrOiKHA7jG13NBfYdaUlNEREREZBGSj+y2gRnJG3LOrzOzLXy+cSK5Xc75xQC+AeBmX6+VFCTXAzgt5/wakvfwr8WkVHNE3tppdSfO2cPnEREREREZSLWk4qKhV9XY/5NI7ujzjIuZzZRluX9Zlp+su9nbSgsANwH477Isnz7M8p2jsH79+gdVu7nfoW4553PHsXmciIiIiGxAALzVNzQBnFOW5ZP9Y8dldnZ2x5zzEQAu9HXZkAPAxQCOJllrxapRq+aHXObqdLR/nIiIiIhILSQfuXCTOgCzOecjJ7F5nplFknvlnL+80odYLTVIzgL4yjR2dSV517Is/2N+dTQA60k+0j9ORERERKQnkncCcPsunDnnM9rt9tgblmZW5Jyfn3M+0ze0Ff0j53z6unXrJr4KWVmW+wG4zMwMwPlm1mmDMBERERGRzkj+a9WYZFmW/z7u+QZmtmXO+eUkz/GNasXgkXP+Wc75uZPsiJjZ3cqy/DQATONujIiIiIgsUyS3BUAAV5Vl+bf++CiZ2VbV/I7LfSNasfQAcGbO+TkT7oj8Fck7+XQRERERkY7MbHXO+aUk7+WPjUo11OrFOecrfKNZMfrIOf+sLMtn+vdBRERERFaeiW/M12RmVgB4Tgjhn1ut1iP88SYAkM1sNqUUqwZ8DiH8bv369WtnZmZilX67sizNzMKqVas2izHuYGaFmQUzs1artdnCx04bgJMBvHfVqlU/88dEREREZGVQB6QyOzu796pVq44piuJR/tikAGCMcR3J36aU2mVZnt1qtUoz+03O+Q+rVq0KZVn+tizLP69evTrGGM3MkFK6zpflmVk0s7vGGGMIIaxZsyasXr165xDCVu1222ZmZh5BcssY43Yxxvua2WYppe1TSmNfVWwhAEbyY0VRvCeldIU/LiIiIiLL2wbfASG5I4AjU0oHFkXhD48NgGtCCNeGEC4ws4tDCJellM6LMd4WY7zSP34aSN4lxngPAA+JMT4mhLCTmd07pXSflNJY520AuMHMjm61Wh/0x0RERERk+dpgOyDVLupHxBhfXxTF5v74KAG4ycwujTGeZWbnkTx7Zmbm0hDCTTFG849vgrIsnxpj3M7MLimK4tyU0i3zx0jeq+qUPDTG+LgQwm5FUWx9xxJGI+f8Y5JvWrVq1en+mIiIiIjIslCW5RNzzmf4ydCjCgB/BPA9AO8oy/JvzOxuZrasOnskb399AKwBcBmA7wJ4a1mWTyF57/nHmtlMu91+dM75qOp5X+dfk6UEgHZZlu8gufEdaykiIiIi0mBmdjcAJ5Fc1MhdSgC4Jed8GoC3k3ycmW3pz73ckNxj4U7zPgBkAFcA+FrO+VUkH7wg79ZlWT4RwDE557MBtH3+YQLAhWVZPvGONRURERERaaCc8/MAjGxZ3eoux2dyzs8b55LA0wTgbf559woAP+60xwbJXav9VE4FMOvzDRIky7Is36W7ISIiIiLSSCS3a7fbn/cN2WECwC/Lsnxvu91eEXc5+jGzjQAMtPs7gHf5chZat27dfXPOrwHwEwDrfP66kXM+p91u/7UvX0RERERkanLOzwVwpW+8DhI5518D+ATJvcxsokvSNgHJR/YaiuUDQJvkbr6cTkjeL+f82pzzeb6cOgGgnXM+arnNrxERERGRFcbMtijL8njfYK0bAK4G8NmyLJ9hZhv58jc0AN7jX6NeAeA0M6u9TK+Ztcqy3AfApwD80ZfXL3LO3167du2KHAYnIiIiIg3Xbrf3yjn/0jdS+wXmfCfnfBDJu/hyN2QkNwdwvn/NegXJI3w5dZjZNjnng3LOZ/syewWAK8uy3M+XJyIiIiIyFmaWcs5HDjrJGcA1AI5dv359rWFDGyqSuw+ymhWANSR39eXUZWZFWZZPyzl/DcAaX36nAMCc81t8WSIiIiIiI2Vm2wP4pm+Q9oqc809zzs8zs218edIZgGP869grcs4/NrMlby9PcqeyLD8E4GZ/jk4B4Fskx7IxooiIiIhs4Mqy3A/A5b4R2ilIrs05/1e73X6ML0f6M7MtAVziX9dekXN+nS9nWLOzszsAeCvJ6/15fAD4lVbJEhEREZGRarfbRwLIvvHpA8D1ZVm+j+R9fRkyGJJP8q9vrwBw21KGYnViZtvnnI/IOV/qz+fOvTbnfLDPLyIiIiIyEDNbDeBL/XY0zzlfQvJwktv6MmR4AD7qX+teMaqhWB7JzXPOryF5mT/nfJC0siyP0VK9IiIiIjKUdevW3a/f5ngALm6324eT3Mznl6Uzsy0A9Lz74IPka305o2Jm25Rl+e+95oi02+3PkbyzzysiIiIi0lVZls/MOV/tG5fzkXO+KOd8mJlt6vPKaJVlua9//XsFyTUk7+/LGaXZ2dkdq8nqHVdCI3nemjVr7u7ziYiIiIgsknP+FwClb1SGuTsev2m324eq4zFZAI7z70WvAPCjcQzF8trt9u4556/784cQrCzLi0k+1ucREREREQlhbpz/JmVZHusbklWD9pJ2u/1Kkpv4fDJ+1VCs3/r3pVfknMc2FMvLOT8n53yhrwPJW2dnZ5/gHy8iIiIiGziSm5P8QYcG5O9zzprj0QAk9wVA/x51i3GsitWLmW2ac34jgOsW1iPnPJtzPtw/XkREREQ2UCQflHO+wDVebyzL8r0kt/OPl+kBcLzvaPQKAD+cxFCshWZnZ3cC8DW/chrJN/jHioiIiMgGpt1uP5zk7ZPNARDAF7WPRzOR3HzQoVgkX+PLmYSyLJ8F4HcL67Ju3brX+8eJiIiIyAaC5Ityzrcs6Hyc2m639/CPk2Ypy3J/f3ehVwC4zcx28eVMAsm7lGX5PgCoOkMG4MRJ35URERERkSlbv379gVYBcEXO+SVmlvzjpJkAnOg7Gr0CwDenuUFgWZZ755zPX/CZ+5KZrfKPExEREZEVKOf8+upKdFmW5TvNbCv/GGm2ITcoPMyXM0lmtrq6G0IzM5Inm9mMf5yIiIiIrDA557MBfF/DrZY3ks/1nYxeAeBakjv7ciatLMvH55wvrDohX/fHRURERGSFMbPVPk2WJwBf8h2NXgHgFF/GNJjZNmVZfrKayyIiIiIiIsuBmd0NwO2rmPULkpZzfrEvZ1pmZ2d38mkiIiIiItJgJJ/vOxq9ohqKdQ9fjoiIiIiISC0Avuw7Gr2iWhVLE8BFREREVrCpLYEqKx/Ju5vZD0II9606Gb3EEEIZY7x/Sukyf1BERERERERERERERERERERERERERERERERERERERERERERERERERERERERERERERERERERERERERERERERERERERERERERERERERERERERERERERERERERERERERERERERERERERERERERERERERERERERERERERERERERERERERERERERERERERERERERERERERERERERERERERERERERERERERERERERERERERERERERERERERERERERERERERERERERERERERERERERERERERERERERERERERERERERERERERERERERERERERERERERERERERERERERERERERERERERERERERERERERERERERERERERERERERERERERERERERERERERERERERERERERERERERERERERERERERERERERERERERERERERERERERERERERERERERERERERERERERERERERERERERERERERERERERERERERERERERERERERERERERERERERERERERERERERERERERERERERERERERERERERERERERERERERERERERERERERERERERERERERERERERERERERERERERERERERERERERERERERERERERERERERERERERJrg/wOOz9oXMk9EBwAAAABJRU5ErkJggg==;" vertex="1" parent="1">
          <mxGeometry x="1246" y="1014" width="370.67" height="139" as="geometry" />
        </mxCell>
        <mxCell id="26935OlRSxEysBYqVgB9-169" value="" style="edgeStyle=entityRelationEdgeStyle;fontSize=12;html=1;endArrow=ERoneToMany;rounded=0;exitX=1;exitY=0.5;exitDx=0;exitDy=0;entryX=0;entryY=0.5;entryDx=0;entryDy=0;strokeColor=#A50040;fillColor=#d80073;" edge="1" parent="1" source="26935OlRSxEysBYqVgB9-2" target="26935OlRSxEysBYqVgB9-15">
          <mxGeometry width="100" height="100" relative="1" as="geometry">
            <mxPoint x="464" y="231" as="sourcePoint" />
            <mxPoint x="998" y="237" as="targetPoint" />
          </mxGeometry>
        </mxCell>
        <mxCell id="26935OlRSxEysBYqVgB9-170" value="" style="edgeStyle=elbowEdgeStyle;fontSize=12;html=1;endArrow=ERmany;rounded=0;exitX=0;exitY=0.5;exitDx=0;exitDy=0;entryX=0;entryY=0.5;entryDx=0;entryDy=0;fillColor=#d80073;strokeColor=#A50040;" edge="1" parent="1" source="26935OlRSxEysBYqVgB9-2" target="26935OlRSxEysBYqVgB9-49">
          <mxGeometry width="100" height="100" relative="1" as="geometry">
            <mxPoint x="605" y="529" as="sourcePoint" />
            <mxPoint x="705" y="429" as="targetPoint" />
            <Array as="points">
              <mxPoint x="175" y="356" />
            </Array>
          </mxGeometry>
        </mxCell>
        <mxCell id="26935OlRSxEysBYqVgB9-171" value="" style="edgeStyle=entityRelationEdgeStyle;fontSize=12;html=1;endArrow=ERoneToMany;rounded=0;fillColor=#d80073;strokeColor=#A50040;" edge="1" parent="1" source="26935OlRSxEysBYqVgB9-49" target="26935OlRSxEysBYqVgB9-138">
          <mxGeometry width="100" height="100" relative="1" as="geometry">
            <mxPoint x="544" y="596" as="sourcePoint" />
            <mxPoint x="644" y="496" as="targetPoint" />
          </mxGeometry>
        </mxCell>
        <mxCell id="26935OlRSxEysBYqVgB9-173" value="" style="edgeStyle=orthogonalEdgeStyle;fontSize=12;html=1;endArrow=ERmandOne;startArrow=ERmandOne;rounded=0;strokeColor=#3700CC;fillColor=#6a00ff;entryX=-0.001;entryY=0.919;entryDx=0;entryDy=0;entryPerimeter=0;" edge="1" parent="1" source="26935OlRSxEysBYqVgB9-62" target="26935OlRSxEysBYqVgB9-15">
          <mxGeometry width="100" height="100" relative="1" as="geometry">
            <mxPoint x="826" y="479" as="sourcePoint" />
            <mxPoint x="926" y="379" as="targetPoint" />
          </mxGeometry>
        </mxCell>
        <mxCell id="26935OlRSxEysBYqVgB9-175" value="" style="edgeStyle=orthogonalEdgeStyle;fontSize=12;html=1;endArrow=ERmandOne;startArrow=ERmandOne;rounded=0;exitX=1.001;exitY=0.243;exitDx=0;exitDy=0;fillColor=#6a00ff;strokeColor=#3700CC;exitPerimeter=0;" edge="1" parent="1" source="26935OlRSxEysBYqVgB9-49" target="26935OlRSxEysBYqVgB9-74">
          <mxGeometry width="100" height="100" relative="1" as="geometry">
            <mxPoint x="570" y="511" as="sourcePoint" />
            <mxPoint x="670" y="411" as="targetPoint" />
          </mxGeometry>
        </mxCell>
        <mxCell id="26935OlRSxEysBYqVgB9-176" value="" style="edgeStyle=orthogonalEdgeStyle;fontSize=12;html=1;endArrow=ERmany;rounded=0;entryX=0;entryY=0.5;entryDx=0;entryDy=0;" edge="1" parent="1" target="26935OlRSxEysBYqVgB9-81">
          <mxGeometry width="100" height="100" relative="1" as="geometry">
            <mxPoint x="409" y="451" as="sourcePoint" />
            <mxPoint x="663" y="492" as="targetPoint" />
            <Array as="points">
              <mxPoint x="409" y="457" />
              <mxPoint x="484" y="457" />
              <mxPoint x="484" y="501" />
              <mxPoint x="816" y="501" />
              <mxPoint x="816" y="474" />
            </Array>
          </mxGeometry>
        </mxCell>
        <mxCell id="26935OlRSxEysBYqVgB9-177" value="" style="edgeStyle=entityRelationEdgeStyle;fontSize=12;html=1;endArrow=ERmandOne;startArrow=ERmandOne;rounded=0;entryX=-0.003;entryY=-0.061;entryDx=0;entryDy=0;entryPerimeter=0;exitX=1;exitY=0.5;exitDx=0;exitDy=0;fillColor=#1ba1e2;strokeColor=#006EAF;" edge="1" parent="1" source="26935OlRSxEysBYqVgB9-122" target="26935OlRSxEysBYqVgB9-90">
          <mxGeometry width="100" height="100" relative="1" as="geometry">
            <mxPoint x="743" y="551" as="sourcePoint" />
            <mxPoint x="843" y="451" as="targetPoint" />
          </mxGeometry>
        </mxCell>
        <mxCell id="26935OlRSxEysBYqVgB9-178" value="" style="edgeStyle=entityRelationEdgeStyle;fontSize=12;html=1;endArrow=ERoneToMany;rounded=0;fillColor=#d80073;strokeColor=#A50040;" edge="1" parent="1" source="26935OlRSxEysBYqVgB9-15" target="26935OlRSxEysBYqVgB9-27">
          <mxGeometry width="100" height="100" relative="1" as="geometry">
            <mxPoint x="1330" y="561" as="sourcePoint" />
            <mxPoint x="1430" y="461" as="targetPoint" />
          </mxGeometry>
        </mxCell>
        <mxCell id="26935OlRSxEysBYqVgB9-179" value="" style="edgeStyle=orthogonalEdgeStyle;fontSize=12;html=1;endArrow=ERoneToMany;rounded=0;entryX=1;entryY=0.5;entryDx=0;entryDy=0;fillColor=#d80073;strokeColor=#A50040;" edge="1" parent="1" source="26935OlRSxEysBYqVgB9-80" target="26935OlRSxEysBYqVgB9-118">
          <mxGeometry width="100" height="100" relative="1" as="geometry">
            <mxPoint x="907" y="647" as="sourcePoint" />
            <mxPoint x="1007" y="547" as="targetPoint" />
          </mxGeometry>
        </mxCell>
        <mxCell id="26935OlRSxEysBYqVgB9-180" value="" style="edgeStyle=entityRelationEdgeStyle;fontSize=12;html=1;endArrow=ERoneToMany;rounded=0;fillColor=#d80073;strokeColor=#A50040;" edge="1" parent="1" source="26935OlRSxEysBYqVgB9-80" target="26935OlRSxEysBYqVgB9-150">
          <mxGeometry width="100" height="100" relative="1" as="geometry">
            <mxPoint x="907" y="647" as="sourcePoint" />
            <mxPoint x="1007" y="547" as="targetPoint" />
            <Array as="points">
              <mxPoint x="1151" y="598" />
              <mxPoint x="1184" y="600" />
              <mxPoint x="1156" y="608" />
            </Array>
          </mxGeometry>
        </mxCell>
      </root>
    </mxGraphModel>
  </diagram>
</mxfile>
